<svg width="75" height="51" viewBox="0 0 75 51" fill="none" xmlns="http://www.w3.org/2000/svg">
<g filter="url(#filter0_d_7301_1444)">
<path d="M37.5 14.9375C37.5 14.0755 37.8424 13.2489 38.4519 12.6394C39.0614 12.0299 39.888 11.6875 40.75 11.6875H47.25C47.4655 11.6875 47.6722 11.7731 47.8245 11.9255C47.9769 12.0778 48.0625 12.2845 48.0625 12.5V25.5C48.0625 25.7155 47.9769 25.9222 47.8245 26.0745C47.6722 26.2269 47.4655 26.3125 47.25 26.3125H40.75C39.888 26.3125 39.0614 26.6549 38.4519 27.2644C37.8424 27.8739 37.5 28.7005 37.5 29.5625" stroke="#A9B7C5" stroke-width="3" stroke-linecap="round" stroke-linejoin="round"/>
<path d="M26.9375 25.5C26.9375 25.7155 27.0231 25.9222 27.1755 26.0745C27.3278 26.2269 27.5345 26.3125 27.75 26.3125H34.25C35.112 26.3125 35.9386 26.6549 36.5481 27.2644C37.1576 27.8739 37.5 28.7005 37.5 29.5625V14.9375C37.5 14.0755 37.1576 13.2489 36.5481 12.6394C35.9386 12.0299 35.112 11.6875 34.25 11.6875H27.75C27.5345 11.6875 27.3278 11.7731 27.1755 11.9255C27.0231 12.0778 26.9375 12.2845 26.9375 12.5V25.5Z" stroke="#A9B7C5" stroke-width="3" stroke-linecap="round" stroke-linejoin="round"/>
</g>
<path d="M22.6262 43L20.0862 39.55L20.8962 39.05L23.7662 43H22.6262ZM17.9162 43V36H18.8962V43H17.9162ZM18.5962 39.92V39.04H20.8662V39.92H18.5962ZM20.9862 39.61L20.0662 39.47L22.5762 36H23.6462L20.9862 39.61ZM27.9495 43V41.88L27.8995 41.67V39.76C27.8995 39.3533 27.7795 39.04 27.5395 38.82C27.3062 38.5933 26.9529 38.48 26.4795 38.48C26.1662 38.48 25.8595 38.5333 25.5595 38.64C25.2595 38.74 25.0062 38.8767 24.7995 39.05L24.3995 38.33C24.6729 38.11 24.9995 37.9433 25.3795 37.83C25.7662 37.71 26.1695 37.65 26.5895 37.65C27.3162 37.65 27.8762 37.8267 28.2695 38.18C28.6629 38.5333 28.8595 39.0733 28.8595 39.8V43H27.9495ZM26.2095 43.06C25.8162 43.06 25.4695 42.9933 25.1695 42.86C24.8762 42.7267 24.6495 42.5433 24.4895 42.31C24.3295 42.07 24.2495 41.8 24.2495 41.5C24.2495 41.2133 24.3162 40.9533 24.4495 40.72C24.5895 40.4867 24.8129 40.3 25.1195 40.16C25.4329 40.02 25.8529 39.95 26.3795 39.95H28.0595V40.64H26.4195C25.9395 40.64 25.6162 40.72 25.4495 40.88C25.2829 41.04 25.1995 41.2333 25.1995 41.46C25.1995 41.72 25.3029 41.93 25.5095 42.09C25.7162 42.2433 26.0029 42.32 26.3695 42.32C26.7295 42.32 27.0429 42.24 27.3095 42.08C27.5829 41.92 27.7795 41.6867 27.8995 41.38L28.0895 42.04C27.9629 42.3533 27.7395 42.6033 27.4195 42.79C27.0995 42.97 26.6962 43.06 26.2095 43.06ZM31.6382 43V38.29L31.8782 38.54H29.6982V37.7H34.5382V38.54H32.3682L32.5982 38.29V43H31.6382ZM38.7698 43V41.88L38.7198 41.67V39.76C38.7198 39.3533 38.5998 39.04 38.3598 38.82C38.1265 38.5933 37.7732 38.48 37.2998 38.48C36.9865 38.48 36.6798 38.5333 36.3798 38.64C36.0798 38.74 35.8265 38.8767 35.6198 39.05L35.2198 38.33C35.4932 38.11 35.8198 37.9433 36.1998 37.83C36.5865 37.71 36.9898 37.65 37.4098 37.65C38.1365 37.65 38.6965 37.8267 39.0898 38.18C39.4832 38.5333 39.6798 39.0733 39.6798 39.8V43H38.7698ZM37.0298 43.06C36.6365 43.06 36.2898 42.9933 35.9898 42.86C35.6965 42.7267 35.4698 42.5433 35.3098 42.31C35.1498 42.07 35.0698 41.8 35.0698 41.5C35.0698 41.2133 35.1365 40.9533 35.2698 40.72C35.4098 40.4867 35.6332 40.3 35.9398 40.16C36.2532 40.02 36.6732 39.95 37.1998 39.95H38.8798V40.64H37.2398C36.7598 40.64 36.4365 40.72 36.2698 40.88C36.1032 41.04 36.0198 41.2333 36.0198 41.46C36.0198 41.72 36.1232 41.93 36.3298 42.09C36.5365 42.2433 36.8232 42.32 37.1898 42.32C37.5498 42.32 37.8632 42.24 38.1298 42.08C38.4032 41.92 38.5998 41.6867 38.7198 41.38L38.9098 42.04C38.7832 42.3533 38.5598 42.6033 38.2398 42.79C37.9198 42.97 37.5165 43.06 37.0298 43.06ZM40.5285 42.99L40.5885 42.18C40.6352 42.1867 40.6785 42.1933 40.7185 42.2C40.7585 42.2067 40.7952 42.21 40.8285 42.21C41.0418 42.21 41.2085 42.1367 41.3285 41.99C41.4552 41.8433 41.5485 41.65 41.6085 41.41C41.6685 41.1633 41.7118 40.8867 41.7385 40.58C41.7652 40.2733 41.7852 39.9667 41.7985 39.66L41.8885 37.7H45.9585V43H44.9985V38.26L45.2285 38.54H42.5085L42.7285 38.25L42.6585 39.72C42.6385 40.1867 42.6018 40.6233 42.5485 41.03C42.4952 41.4367 42.4118 41.7933 42.2985 42.1C42.1918 42.4067 42.0418 42.6467 41.8485 42.82C41.6618 42.9933 41.4185 43.08 41.1185 43.08C41.0318 43.08 40.9385 43.07 40.8385 43.05C40.7452 43.0367 40.6418 43.0167 40.5285 42.99ZM50.0848 43.06C49.5514 43.06 49.0781 42.9433 48.6648 42.71C48.2514 42.4767 47.9248 42.1567 47.6848 41.75C47.4448 41.3367 47.3248 40.87 47.3248 40.35C47.3248 39.8233 47.4448 39.3567 47.6848 38.95C47.9248 38.5433 48.2514 38.2267 48.6648 38C49.0781 37.7667 49.5514 37.65 50.0848 37.65C50.6114 37.65 51.0814 37.7667 51.4948 38C51.9148 38.2267 52.2414 38.5433 52.4748 38.95C52.7148 39.35 52.8348 39.8167 52.8348 40.35C52.8348 40.8767 52.7148 41.3433 52.4748 41.75C52.2414 42.1567 51.9148 42.4767 51.4948 42.71C51.0814 42.9433 50.6114 43.06 50.0848 43.06ZM50.0848 42.22C50.4248 42.22 50.7281 42.1433 50.9948 41.99C51.2681 41.8367 51.4814 41.62 51.6348 41.34C51.7881 41.0533 51.8648 40.7233 51.8648 40.35C51.8648 39.97 51.7881 39.6433 51.6348 39.37C51.4814 39.09 51.2681 38.8733 50.9948 38.72C50.7281 38.5667 50.4248 38.49 50.0848 38.49C49.7448 38.49 49.4414 38.5667 49.1748 38.72C48.9081 38.8733 48.6948 39.09 48.5348 39.37C48.3748 39.6433 48.2948 39.97 48.2948 40.35C48.2948 40.7233 48.3748 41.0533 48.5348 41.34C48.6948 41.62 48.9081 41.8367 49.1748 41.99C49.4414 42.1433 49.7448 42.22 50.0848 42.22ZM54.221 43V37.7H58.121V38.54H54.951L55.181 38.32V43H54.221Z" fill="#707982"/>
<defs>
<filter id="filter0_d_7301_1444" x="20.5" y="6" width="34" height="34" filterUnits="userSpaceOnUse" color-interpolation-filters="sRGB">
<feFlood flood-opacity="0" result="BackgroundImageFix"/>
<feColorMatrix in="SourceAlpha" type="matrix" values="0 0 0 0 0 0 0 0 0 0 0 0 0 0 0 0 0 0 127 0" result="hardAlpha"/>
<feOffset dy="4"/>
<feGaussianBlur stdDeviation="2"/>
<feComposite in2="hardAlpha" operator="out"/>
<feColorMatrix type="matrix" values="0 0 0 0 0 0 0 0 0 0 0 0 0 0 0 0 0 0 0.25 0"/>
<feBlend mode="normal" in2="BackgroundImageFix" result="effect1_dropShadow_7301_1444"/>
<feBlend mode="normal" in="SourceGraphic" in2="effect1_dropShadow_7301_1444" result="shape"/>
</filter>
</defs>
</svg>
