<svg width="17" height="17" viewBox="0 0 17 17" fill="none" xmlns="http://www.w3.org/2000/svg">
<path d="M16.0779 1.71877L11.4998 14.9453C11.3045 15.5156 10.492 15.5 10.3123 14.9219L8.46855 8.93752C8.44073 8.83969 8.38792 8.75079 8.31532 8.67956C8.24272 8.60833 8.15283 8.55722 8.05449 8.53127L2.07792 6.68752C1.4998 6.50783 1.48417 5.69533 2.05449 5.50002L15.2811 0.921892C15.3922 0.882835 15.5121 0.875978 15.6269 0.902111C15.7418 0.928244 15.8469 0.986302 15.9302 1.06959C16.0135 1.15289 16.0716 1.25802 16.0977 1.37288C16.1238 1.48773 16.117 1.60764 16.0779 1.71877V1.71877Z" stroke="#222127" stroke-width="1.5" stroke-linecap="round" stroke-linejoin="round"/>
</svg>
