<svg width="75" height="51" viewBox="0 0 75 51" fill="none" xmlns="http://www.w3.org/2000/svg">
<path d="M37.5 29.5625V14.9375" stroke="white" stroke-width="3" stroke-linecap="round" stroke-linejoin="round"/>
<path d="M37.9579 24.4031C38.7033 24.9108 39.5463 25.2579 40.4331 25.4221C41.32 25.5864 42.2313 25.5643 43.1091 25.3573C43.987 25.1502 44.8121 24.7628 45.5321 24.2195C46.252 23.6763 46.8511 22.9891 47.2911 22.2018C47.731 21.4145 48.0024 20.5442 48.0878 19.6463C48.1732 18.7485 48.0708 17.8427 47.7871 16.9865C47.5035 16.1303 47.0447 15.3426 46.4401 14.6734C45.8354 14.0041 45.0982 13.468 44.2751 13.0992C44.0944 13.0083 43.9508 12.8576 43.8688 12.6726C43.3423 11.4183 42.4571 10.3474 41.3242 9.59431C40.1913 8.84121 38.8612 8.43945 37.5009 8.43945C36.1405 8.43945 34.8104 8.84121 33.6776 9.59431C32.5447 10.3474 31.6594 11.4183 31.1329 12.6726C31.051 12.8576 30.9074 13.0083 30.7267 13.0992C29.9036 13.468 29.1663 14.0041 28.5617 14.6734C27.957 15.3426 27.4983 16.1303 27.2146 16.9865C26.931 17.8427 26.8286 18.7485 26.914 19.6463C26.9994 20.5442 27.2707 21.4145 27.7107 22.2018C28.1507 22.9891 28.7497 23.6763 29.4697 24.2195C30.1896 24.7628 31.0148 25.1502 31.8926 25.3573C32.7705 25.5643 33.6818 25.5864 34.5686 25.4221C35.4555 25.2579 36.2984 24.9108 37.0438 24.4031C37.1796 24.314 37.3385 24.2665 37.5009 24.2665C37.6633 24.2665 37.8221 24.314 37.9579 24.4031Z" stroke="white" stroke-width="3" stroke-linecap="round" stroke-linejoin="round"/>
<path d="M37.5 21.4375L32.625 19" stroke="white" stroke-width="3" stroke-linecap="round" stroke-linejoin="round"/>
<path d="M37.5 19L42.375 16.5625" stroke="white" stroke-width="3" stroke-linecap="round" stroke-linejoin="round"/>
<path d="M10.2568 41.2334V42H6.70215V41.2334H10.2568ZM6.8877 34.8906V42H5.94531V34.8906H6.8877ZM16.3145 41.0967V38.377C16.3145 38.1686 16.2721 37.988 16.1875 37.835C16.1061 37.6787 15.9824 37.5583 15.8164 37.4736C15.6504 37.389 15.4453 37.3467 15.2012 37.3467C14.9733 37.3467 14.7731 37.3857 14.6006 37.4639C14.4313 37.542 14.2979 37.6445 14.2002 37.7715C14.1058 37.8984 14.0586 38.0352 14.0586 38.1816H13.1553C13.1553 37.9928 13.2041 37.8057 13.3018 37.6201C13.3994 37.4346 13.5394 37.2669 13.7217 37.1172C13.9072 36.9642 14.1286 36.8438 14.3857 36.7559C14.6462 36.6647 14.9359 36.6191 15.2549 36.6191C15.639 36.6191 15.9775 36.6842 16.2705 36.8145C16.5667 36.9447 16.7979 37.1416 16.9639 37.4053C17.1331 37.6657 17.2178 37.9928 17.2178 38.3867V40.8477C17.2178 41.0234 17.2324 41.2106 17.2617 41.4092C17.2943 41.6077 17.3415 41.7786 17.4033 41.9219V42H16.4609C16.4154 41.8958 16.3796 41.7575 16.3535 41.585C16.3275 41.4092 16.3145 41.2464 16.3145 41.0967ZM16.4707 38.7969L16.4805 39.4316H15.5674C15.3102 39.4316 15.0807 39.4528 14.8789 39.4951C14.6771 39.5342 14.5078 39.5944 14.3711 39.6758C14.2344 39.7572 14.1302 39.8597 14.0586 39.9834C13.987 40.1038 13.9512 40.2454 13.9512 40.4082C13.9512 40.5742 13.9886 40.7256 14.0635 40.8623C14.1383 40.999 14.2507 41.1081 14.4004 41.1895C14.5534 41.2676 14.7406 41.3066 14.9619 41.3066C15.2386 41.3066 15.4827 41.248 15.6943 41.1309C15.9059 41.0137 16.0736 40.8704 16.1973 40.7012C16.3242 40.5319 16.3926 40.3675 16.4023 40.208L16.7881 40.6426C16.7653 40.7793 16.7035 40.9307 16.6025 41.0967C16.5016 41.2627 16.3665 41.4222 16.1973 41.5752C16.0312 41.7249 15.8327 41.8503 15.6016 41.9512C15.3737 42.0488 15.1165 42.0977 14.8301 42.0977C14.472 42.0977 14.1579 42.0277 13.8877 41.8877C13.6208 41.7477 13.4124 41.5605 13.2627 41.3262C13.1162 41.0885 13.043 40.8232 13.043 40.5303C13.043 40.2471 13.0983 39.998 13.209 39.7832C13.3197 39.5651 13.4792 39.3844 13.6875 39.2412C13.8958 39.0947 14.1465 38.984 14.4395 38.9092C14.7324 38.8343 15.0596 38.7969 15.4209 38.7969H16.4707ZM21.542 37.8447V42H20.6387V36.7168H21.4932L21.542 37.8447ZM21.3271 39.1582L20.9512 39.1436C20.9544 38.7822 21.0081 38.4486 21.1123 38.1426C21.2165 37.8333 21.363 37.5648 21.5518 37.3369C21.7406 37.109 21.9652 36.9333 22.2256 36.8096C22.4893 36.6826 22.7806 36.6191 23.0996 36.6191C23.36 36.6191 23.5944 36.6549 23.8027 36.7266C24.0111 36.7949 24.1885 36.9056 24.335 37.0586C24.4847 37.2116 24.5986 37.4102 24.6768 37.6543C24.7549 37.8952 24.7939 38.1898 24.7939 38.5381V42H23.8857V38.5283C23.8857 38.2516 23.8451 38.0303 23.7637 37.8643C23.6823 37.695 23.5635 37.5729 23.4072 37.498C23.251 37.4199 23.0589 37.3809 22.8311 37.3809C22.6064 37.3809 22.4014 37.4281 22.2158 37.5225C22.0335 37.6169 21.8757 37.7471 21.7422 37.9131C21.612 38.0791 21.5094 38.2695 21.4346 38.4844C21.363 38.696 21.3271 38.9206 21.3271 39.1582ZM31.4961 40.9746V34.5H32.4043V42H31.5742L31.4961 40.9746ZM27.9414 39.417V39.3145C27.9414 38.9108 27.9902 38.5446 28.0879 38.2158C28.1888 37.8838 28.3304 37.599 28.5127 37.3613C28.6982 37.1237 28.918 36.9414 29.1719 36.8145C29.429 36.6842 29.7155 36.6191 30.0312 36.6191C30.3633 36.6191 30.653 36.6777 30.9004 36.7949C31.151 36.9089 31.3626 37.0765 31.5352 37.2979C31.7109 37.516 31.8493 37.7796 31.9502 38.0889C32.0511 38.3981 32.1211 38.748 32.1602 39.1387V39.5879C32.1243 39.9753 32.0544 40.3236 31.9502 40.6328C31.8493 40.9421 31.7109 41.2057 31.5352 41.4238C31.3626 41.6419 31.151 41.8096 30.9004 41.9268C30.6497 42.0407 30.3568 42.0977 30.0215 42.0977C29.7122 42.0977 29.429 42.0309 29.1719 41.8975C28.918 41.764 28.6982 41.5768 28.5127 41.3359C28.3304 41.0951 28.1888 40.8118 28.0879 40.4863C27.9902 40.1576 27.9414 39.8011 27.9414 39.417ZM28.8496 39.3145V39.417C28.8496 39.6807 28.8757 39.9281 28.9277 40.1592C28.9831 40.3903 29.0677 40.5938 29.1816 40.7695C29.2956 40.9453 29.4404 41.0837 29.6162 41.1846C29.792 41.2822 30.002 41.3311 30.2461 41.3311C30.5456 41.3311 30.7913 41.2676 30.9834 41.1406C31.1787 41.0137 31.335 40.846 31.4521 40.6377C31.5693 40.4294 31.6605 40.2031 31.7256 39.959V38.7822C31.6865 38.6032 31.6296 38.4307 31.5547 38.2646C31.4831 38.0954 31.3887 37.9456 31.2715 37.8154C31.1576 37.682 31.016 37.5762 30.8467 37.498C30.6807 37.4199 30.4837 37.3809 30.2559 37.3809C30.0085 37.3809 29.7952 37.4329 29.6162 37.5371C29.4404 37.638 29.2956 37.778 29.1816 37.957C29.0677 38.1328 28.9831 38.3379 28.9277 38.5723C28.8757 38.8034 28.8496 39.0508 28.8496 39.3145ZM38.8867 40.5986C38.8867 40.4684 38.8574 40.348 38.7988 40.2373C38.7435 40.1234 38.6279 40.0208 38.4521 39.9297C38.2796 39.8353 38.0192 39.7539 37.6709 39.6855C37.3779 39.6237 37.1126 39.5505 36.875 39.4658C36.6406 39.3812 36.4404 39.2786 36.2744 39.1582C36.1117 39.0378 35.9863 38.8962 35.8984 38.7334C35.8105 38.5706 35.7666 38.3802 35.7666 38.1621C35.7666 37.9538 35.8122 37.7568 35.9033 37.5713C35.9977 37.3857 36.1296 37.2214 36.2988 37.0781C36.4714 36.9349 36.6781 36.8226 36.9189 36.7412C37.1598 36.6598 37.4284 36.6191 37.7246 36.6191C38.1478 36.6191 38.5091 36.694 38.8086 36.8438C39.1081 36.9935 39.3376 37.1937 39.4971 37.4443C39.6566 37.6917 39.7363 37.9668 39.7363 38.2695H38.833C38.833 38.123 38.7891 37.9814 38.7012 37.8447C38.6165 37.7048 38.4912 37.5892 38.3252 37.498C38.1624 37.4069 37.9622 37.3613 37.7246 37.3613C37.474 37.3613 37.2705 37.4004 37.1143 37.4785C36.9613 37.5534 36.849 37.6494 36.7773 37.7666C36.709 37.8838 36.6748 38.0075 36.6748 38.1377C36.6748 38.2354 36.6911 38.3232 36.7236 38.4014C36.7594 38.4762 36.8213 38.5462 36.9092 38.6113C36.9971 38.6732 37.1208 38.7318 37.2803 38.7871C37.4398 38.8424 37.6432 38.8978 37.8906 38.9531C38.3236 39.0508 38.68 39.168 38.96 39.3047C39.2399 39.4414 39.4482 39.609 39.585 39.8076C39.7217 40.0062 39.79 40.2471 39.79 40.5303C39.79 40.7614 39.7412 40.973 39.6436 41.165C39.5492 41.3571 39.4108 41.5231 39.2285 41.6631C39.0495 41.7998 38.8346 41.9072 38.584 41.9854C38.3366 42.0602 38.0583 42.0977 37.749 42.0977C37.2835 42.0977 36.8896 42.0146 36.5674 41.8486C36.2451 41.6826 36.001 41.4678 35.835 41.2041C35.6689 40.9404 35.5859 40.6621 35.5859 40.3691H36.4941C36.5072 40.6165 36.5788 40.8135 36.709 40.96C36.8392 41.1032 36.9987 41.2057 37.1875 41.2676C37.3763 41.3262 37.5635 41.3555 37.749 41.3555C37.9964 41.3555 38.2031 41.3229 38.3691 41.2578C38.5384 41.1927 38.667 41.1032 38.7549 40.9893C38.8428 40.8753 38.8867 40.7451 38.8867 40.5986ZM45.0908 41.3555C45.3057 41.3555 45.5042 41.3115 45.6865 41.2236C45.8688 41.1357 46.0186 41.0153 46.1357 40.8623C46.2529 40.7061 46.3197 40.5286 46.3359 40.3301H47.1953C47.179 40.6426 47.0732 40.9339 46.8779 41.2041C46.6859 41.471 46.4336 41.6875 46.1211 41.8535C45.8086 42.0163 45.4652 42.0977 45.0908 42.0977C44.6937 42.0977 44.347 42.0277 44.0508 41.8877C43.7578 41.7477 43.5137 41.5557 43.3184 41.3115C43.1263 41.0674 42.9814 40.7874 42.8838 40.4717C42.7894 40.1527 42.7422 39.8158 42.7422 39.4609V39.2559C42.7422 38.901 42.7894 38.5658 42.8838 38.25C42.9814 37.931 43.1263 37.6494 43.3184 37.4053C43.5137 37.1611 43.7578 36.9691 44.0508 36.8291C44.347 36.6891 44.6937 36.6191 45.0908 36.6191C45.5042 36.6191 45.8656 36.7038 46.1748 36.873C46.484 37.0391 46.7266 37.2669 46.9023 37.5566C47.0814 37.8431 47.179 38.1686 47.1953 38.5332H46.3359C46.3197 38.3151 46.2578 38.1182 46.1504 37.9424C46.0462 37.7666 45.903 37.6266 45.7207 37.5225C45.5417 37.415 45.3317 37.3613 45.0908 37.3613C44.8141 37.3613 44.5814 37.4167 44.3926 37.5273C44.207 37.6348 44.0589 37.7812 43.9482 37.9668C43.8408 38.1491 43.7627 38.3525 43.7139 38.5771C43.6683 38.7985 43.6455 39.0247 43.6455 39.2559V39.4609C43.6455 39.6921 43.6683 39.9199 43.7139 40.1445C43.7594 40.3691 43.8359 40.5726 43.9434 40.7549C44.054 40.9372 44.2021 41.0837 44.3877 41.1943C44.5765 41.3018 44.8109 41.3555 45.0908 41.3555ZM53.3262 41.0967V38.377C53.3262 38.1686 53.2839 37.988 53.1992 37.835C53.1178 37.6787 52.9941 37.5583 52.8281 37.4736C52.6621 37.389 52.457 37.3467 52.2129 37.3467C51.985 37.3467 51.7848 37.3857 51.6123 37.4639C51.443 37.542 51.3096 37.6445 51.2119 37.7715C51.1175 37.8984 51.0703 38.0352 51.0703 38.1816H50.167C50.167 37.9928 50.2158 37.8057 50.3135 37.6201C50.4111 37.4346 50.5511 37.2669 50.7334 37.1172C50.9189 36.9642 51.1403 36.8438 51.3975 36.7559C51.6579 36.6647 51.9476 36.6191 52.2666 36.6191C52.6507 36.6191 52.9893 36.6842 53.2822 36.8145C53.5785 36.9447 53.8096 37.1416 53.9756 37.4053C54.1449 37.6657 54.2295 37.9928 54.2295 38.3867V40.8477C54.2295 41.0234 54.2441 41.2106 54.2734 41.4092C54.306 41.6077 54.3532 41.7786 54.415 41.9219V42H53.4727C53.4271 41.8958 53.3913 41.7575 53.3652 41.585C53.3392 41.4092 53.3262 41.2464 53.3262 41.0967ZM53.4824 38.7969L53.4922 39.4316H52.5791C52.3219 39.4316 52.0924 39.4528 51.8906 39.4951C51.6888 39.5342 51.5195 39.5944 51.3828 39.6758C51.2461 39.7572 51.1419 39.8597 51.0703 39.9834C50.9987 40.1038 50.9629 40.2454 50.9629 40.4082C50.9629 40.5742 51.0003 40.7256 51.0752 40.8623C51.1501 40.999 51.2624 41.1081 51.4121 41.1895C51.5651 41.2676 51.7523 41.3066 51.9736 41.3066C52.2503 41.3066 52.4945 41.248 52.7061 41.1309C52.9176 41.0137 53.0853 40.8704 53.209 40.7012C53.3359 40.5319 53.4043 40.3675 53.4141 40.208L53.7998 40.6426C53.777 40.7793 53.7152 40.9307 53.6143 41.0967C53.5133 41.2627 53.3783 41.4222 53.209 41.5752C53.043 41.7249 52.8444 41.8503 52.6133 41.9512C52.3854 42.0488 52.1283 42.0977 51.8418 42.0977C51.4837 42.0977 51.1696 42.0277 50.8994 41.8877C50.6325 41.7477 50.4242 41.5605 50.2744 41.3262C50.1279 41.0885 50.0547 40.8232 50.0547 40.5303C50.0547 40.2471 50.11 39.998 50.2207 39.7832C50.3314 39.5651 50.4909 39.3844 50.6992 39.2412C50.9076 39.0947 51.1582 38.984 51.4512 38.9092C51.7441 38.8343 52.0713 38.7969 52.4326 38.7969H53.4824ZM58.5537 37.7324V44.0312H57.6455V36.7168H58.4756L58.5537 37.7324ZM62.1133 39.3145V39.417C62.1133 39.8011 62.0677 40.1576 61.9766 40.4863C61.8854 40.8118 61.752 41.0951 61.5762 41.3359C61.4036 41.5768 61.1904 41.764 60.9365 41.8975C60.6826 42.0309 60.3913 42.0977 60.0625 42.0977C59.7272 42.0977 59.431 42.0423 59.1738 41.9316C58.9167 41.821 58.6986 41.6598 58.5195 41.4482C58.3405 41.2367 58.1973 40.9827 58.0898 40.6865C57.9857 40.3903 57.9141 40.0566 57.875 39.6855V39.1387C57.9141 38.748 57.9873 38.3981 58.0947 38.0889C58.2021 37.7796 58.3438 37.516 58.5195 37.2979C58.6986 37.0765 58.915 36.9089 59.1689 36.7949C59.4229 36.6777 59.7158 36.6191 60.0479 36.6191C60.3799 36.6191 60.6745 36.6842 60.9316 36.8145C61.1888 36.9414 61.4053 37.1237 61.5811 37.3613C61.7568 37.599 61.8887 37.8838 61.9766 38.2158C62.0677 38.5446 62.1133 38.9108 62.1133 39.3145ZM61.2051 39.417V39.3145C61.2051 39.0508 61.1774 38.8034 61.1221 38.5723C61.0667 38.3379 60.9805 38.1328 60.8633 37.957C60.7493 37.778 60.6029 37.638 60.4238 37.5371C60.2448 37.4329 60.0316 37.3809 59.7842 37.3809C59.5563 37.3809 59.3577 37.4199 59.1885 37.498C59.0225 37.5762 58.8809 37.682 58.7637 37.8154C58.6465 37.9456 58.5505 38.0954 58.4756 38.2646C58.404 38.4307 58.3503 38.6032 58.3145 38.7822V40.0469C58.3796 40.2747 58.4707 40.4896 58.5879 40.6914C58.7051 40.89 58.8613 41.0511 59.0566 41.1748C59.252 41.2952 59.4977 41.3555 59.7939 41.3555C60.0381 41.3555 60.248 41.305 60.4238 41.2041C60.6029 41.0999 60.7493 40.9583 60.8633 40.7793C60.9805 40.6003 61.0667 40.3952 61.1221 40.1641C61.1774 39.9297 61.2051 39.6807 61.2051 39.417ZM67.458 42.0977C67.0902 42.0977 66.7565 42.0358 66.457 41.9121C66.1608 41.7852 65.9053 41.6077 65.6904 41.3799C65.4788 41.152 65.3161 40.8818 65.2021 40.5693C65.0882 40.2568 65.0312 39.915 65.0312 39.5439V39.3389C65.0312 38.9092 65.0947 38.5267 65.2217 38.1914C65.3486 37.8529 65.5212 37.5664 65.7393 37.332C65.9574 37.0977 66.2048 36.9202 66.4814 36.7998C66.7581 36.6794 67.0446 36.6191 67.3408 36.6191C67.7184 36.6191 68.0439 36.6842 68.3174 36.8145C68.5941 36.9447 68.8203 37.127 68.9961 37.3613C69.1719 37.5924 69.3021 37.8659 69.3867 38.1816C69.4714 38.4941 69.5137 38.8359 69.5137 39.207V39.6123H65.5684V38.875H68.6104V38.8066C68.5973 38.5723 68.5485 38.3444 68.4639 38.123C68.3825 37.9017 68.2523 37.7194 68.0732 37.5762C67.8942 37.4329 67.6501 37.3613 67.3408 37.3613C67.1357 37.3613 66.9469 37.4053 66.7744 37.4932C66.6019 37.5778 66.4538 37.7048 66.3301 37.874C66.2064 38.0433 66.1104 38.25 66.042 38.4941C65.9736 38.7383 65.9395 39.0199 65.9395 39.3389V39.5439C65.9395 39.7946 65.9736 40.0306 66.042 40.252C66.1136 40.4701 66.2161 40.6621 66.3496 40.8281C66.4863 40.9941 66.6507 41.1243 66.8428 41.2188C67.0381 41.3132 67.2594 41.3604 67.5068 41.3604C67.8258 41.3604 68.096 41.2952 68.3174 41.165C68.5387 41.0348 68.7324 40.8607 68.8984 40.6426L69.4453 41.0771C69.3314 41.2497 69.1865 41.4141 69.0107 41.5703C68.835 41.7266 68.6185 41.8535 68.3613 41.9512C68.1074 42.0488 67.8063 42.0977 67.458 42.0977Z" fill="white"/>
</svg>
