<svg width="75" height="51" viewBox="0 0 75 51" fill="none" xmlns="http://www.w3.org/2000/svg">
<path d="M46.1734 17.1313L38.0484 9.74769C37.8987 9.61066 37.703 9.53467 37.5 9.53467C37.297 9.53467 37.1013 9.61066 36.9516 9.74769L28.8266 17.1313C28.7448 17.2085 28.6793 17.3013 28.634 17.4042C28.5886 17.5071 28.5643 17.6181 28.5625 17.7305V27.125C28.5625 27.3405 28.6481 27.5472 28.8005 27.6996C28.9528 27.8519 29.1595 27.9375 29.375 27.9375H45.625C45.8405 27.9375 46.0472 27.8519 46.1995 27.6996C46.3519 27.5472 46.4375 27.3405 46.4375 27.125V17.7305C46.4357 17.6181 46.4114 17.5071 46.366 17.4042C46.3207 17.3013 46.2552 17.2085 46.1734 17.1313Z" fill="#4D4D82" stroke="#4D4D82" stroke-width="3" stroke-linecap="round" stroke-linejoin="round"/>
<path d="M17.0272 43V36H21.9672L21.9572 37.32H18.2572L18.6272 36.95L18.6372 43H17.0272ZM20.7389 42.99L20.8189 41.71C20.8589 41.7167 20.8989 41.7233 20.9389 41.73C20.9789 41.73 21.0156 41.73 21.0489 41.73C21.2356 41.73 21.3823 41.6767 21.4889 41.57C21.5956 41.4633 21.6756 41.32 21.7289 41.14C21.7823 40.9533 21.8189 40.7433 21.8389 40.51C21.8656 40.2767 21.8856 40.0333 21.8989 39.78L21.9789 37.62H26.5789V43H25.0189V38.52L25.3689 38.9H23.0089L23.3389 38.5L23.2689 39.85C23.2489 40.33 23.2089 40.77 23.1489 41.17C23.0956 41.57 23.0056 41.9167 22.8789 42.21C22.7523 42.4967 22.5823 42.72 22.3689 42.88C22.1556 43.0333 21.8823 43.11 21.5489 43.11C21.4289 43.11 21.3023 43.1 21.1689 43.08C21.0356 43.06 20.8923 43.03 20.7389 42.99ZM31.2991 43V41.95L31.1991 41.72V39.84C31.1991 39.5067 31.0958 39.2467 30.8891 39.06C30.6891 38.8733 30.3791 38.78 29.9591 38.78C29.6724 38.78 29.3891 38.8267 29.1091 38.92C28.8358 39.0067 28.6024 39.1267 28.4091 39.28L27.8491 38.19C28.1424 37.9833 28.4958 37.8233 28.9091 37.71C29.3224 37.5967 29.7424 37.54 30.1691 37.54C30.9891 37.54 31.6258 37.7333 32.0791 38.12C32.5324 38.5067 32.7591 39.11 32.7591 39.93V43H31.2991ZM29.6591 43.08C29.2391 43.08 28.8791 43.01 28.5791 42.87C28.2791 42.7233 28.0491 42.5267 27.8891 42.28C27.7291 42.0333 27.6491 41.7567 27.6491 41.45C27.6491 41.13 27.7258 40.85 27.8791 40.61C28.0391 40.37 28.2891 40.1833 28.6291 40.05C28.9691 39.91 29.4124 39.84 29.9591 39.84H31.3891V40.75H30.1291C29.7624 40.75 29.5091 40.81 29.3691 40.93C29.2358 41.05 29.1691 41.2 29.1691 41.38C29.1691 41.58 29.2458 41.74 29.3991 41.86C29.5591 41.9733 29.7758 42.03 30.0491 42.03C30.3091 42.03 30.5424 41.97 30.7491 41.85C30.9558 41.7233 31.1058 41.54 31.1991 41.3L31.4391 42.02C31.3258 42.3667 31.1191 42.63 30.8191 42.81C30.5191 42.99 30.1324 43.08 29.6591 43.08ZM34.1143 43V37.62H36.8643C37.5376 37.62 38.0643 37.7433 38.4443 37.99C38.8243 38.23 39.0143 38.57 39.0143 39.01C39.0143 39.45 38.8343 39.7967 38.4743 40.05C38.1209 40.2967 37.6509 40.42 37.0643 40.42L37.2243 40.06C37.8776 40.06 38.3643 40.18 38.6843 40.42C39.0109 40.66 39.1743 41.01 39.1743 41.47C39.1743 41.9433 38.9943 42.3167 38.6343 42.59C38.2743 42.8633 37.7243 43 36.9843 43H34.1143ZM35.5443 41.94H36.8543C37.1409 41.94 37.3543 41.8933 37.4943 41.8C37.6409 41.7 37.7143 41.55 37.7143 41.35C37.7143 41.1433 37.6476 40.9933 37.5143 40.9C37.3809 40.8 37.1709 40.75 36.8843 40.75H35.5443V41.94ZM35.5443 39.83H36.7243C36.9976 39.83 37.2009 39.78 37.3343 39.68C37.4743 39.58 37.5443 39.4367 37.5443 39.25C37.5443 39.0567 37.4743 38.9133 37.3343 38.82C37.2009 38.7267 36.9976 38.68 36.7243 38.68H35.5443V39.83ZM40.335 43V37.62H41.885V39.72H44.225V37.62H45.785V43H44.225V40.99H41.885V43H40.335ZM50.4983 43V41.95L50.3983 41.72V39.84C50.3983 39.5067 50.295 39.2467 50.0883 39.06C49.8883 38.8733 49.5783 38.78 49.1583 38.78C48.8717 38.78 48.5883 38.8267 48.3083 38.92C48.035 39.0067 47.8017 39.1267 47.6083 39.28L47.0483 38.19C47.3417 37.9833 47.695 37.8233 48.1083 37.71C48.5217 37.5967 48.9417 37.54 49.3683 37.54C50.1883 37.54 50.825 37.7333 51.2783 38.12C51.7317 38.5067 51.9583 39.11 51.9583 39.93V43H50.4983ZM48.8583 43.08C48.4383 43.08 48.0783 43.01 47.7783 42.87C47.4783 42.7233 47.2483 42.5267 47.0883 42.28C46.9283 42.0333 46.8483 41.7567 46.8483 41.45C46.8483 41.13 46.925 40.85 47.0783 40.61C47.2383 40.37 47.4883 40.1833 47.8283 40.05C48.1683 39.91 48.6117 39.84 49.1583 39.84H50.5883V40.75H49.3283C48.9617 40.75 48.7083 40.81 48.5683 40.93C48.435 41.05 48.3683 41.2 48.3683 41.38C48.3683 41.58 48.445 41.74 48.5983 41.86C48.7583 41.9733 48.975 42.03 49.2483 42.03C49.5083 42.03 49.7417 41.97 49.9483 41.85C50.155 41.7233 50.305 41.54 50.3983 41.3L50.6383 42.02C50.525 42.3667 50.3183 42.63 50.0183 42.81C49.7183 42.99 49.3317 43.08 48.8583 43.08ZM56.7035 43V41.21L56.9235 41.46H55.4335C54.6601 41.46 54.0535 41.3 53.6135 40.98C53.1735 40.66 52.9535 40.2 52.9535 39.6C52.9535 38.96 53.1835 38.47 53.6435 38.13C54.1101 37.79 54.7368 37.62 55.5235 37.62H58.0935V43H56.7035ZM52.8735 43L54.3035 40.95H55.8935L54.5335 43H52.8735ZM56.7035 40.73V38.49L56.9235 38.89H55.5535C55.2335 38.89 54.9835 38.95 54.8035 39.07C54.6301 39.19 54.5435 39.3833 54.5435 39.65C54.5435 40.1633 54.8735 40.42 55.5335 40.42H56.9235L56.7035 40.73Z" fill="#4D4D82"/>
</svg>
