<svg width="75" height="51" viewBox="0 0 75 51" fill="none" xmlns="http://www.w3.org/2000/svg">
<path d="M46.1734 17.1313L38.0484 9.74769C37.8987 9.61066 37.703 9.53467 37.5 9.53467C37.297 9.53467 37.1013 9.61066 36.9516 9.74769L28.8266 17.1313C28.7448 17.2085 28.6793 17.3013 28.634 17.4042C28.5886 17.5071 28.5643 17.6181 28.5625 17.7305V27.125C28.5625 27.3405 28.6481 27.5472 28.8005 27.6996C28.9528 27.8519 29.1595 27.9375 29.375 27.9375H45.625C45.8405 27.9375 46.0472 27.8519 46.1995 27.6996C46.3519 27.5472 46.4375 27.3405 46.4375 27.125V17.7305C46.4357 17.6181 46.4114 17.5071 46.366 17.4042C46.3207 17.3013 46.2552 17.2085 46.1734 17.1313Z" fill="white" stroke="white" stroke-width="3" stroke-linecap="round" stroke-linejoin="round"/>
<path d="M17.7207 34.8906V35.6621H14.293V42H13.3555V34.8906H17.7207ZM23.0898 36.7168V37.4639H20.5361V36.7168H23.0898ZM23.8857 36.7168V42H22.9824V36.7168H23.8857ZM20.3164 36.7168H21.2246L21.0879 39.2656C21.0651 39.6595 21.0277 40.0078 20.9756 40.3105C20.9268 40.61 20.8584 40.8672 20.7705 41.082C20.6859 41.2969 20.5785 41.4727 20.4482 41.6094C20.3213 41.7428 20.1683 41.8421 19.9893 41.9072C19.8102 41.9691 19.6035 42 19.3691 42H19.0859V41.2041L19.2812 41.1895C19.4212 41.1797 19.54 41.1471 19.6377 41.0918C19.7386 41.0365 19.8232 40.9551 19.8916 40.8477C19.96 40.737 20.0153 40.5954 20.0576 40.4229C20.1032 40.2503 20.1374 40.0452 20.1602 39.8076C20.1862 39.57 20.2057 39.2933 20.2188 38.9775L20.3164 36.7168ZM30.4561 41.0967V38.377C30.4561 38.1686 30.4137 37.988 30.3291 37.835C30.2477 37.6787 30.124 37.5583 29.958 37.4736C29.792 37.389 29.5869 37.3467 29.3428 37.3467C29.1149 37.3467 28.9147 37.3857 28.7422 37.4639C28.5729 37.542 28.4395 37.6445 28.3418 37.7715C28.2474 37.8984 28.2002 38.0352 28.2002 38.1816H27.2969C27.2969 37.9928 27.3457 37.8057 27.4434 37.6201C27.541 37.4346 27.681 37.2669 27.8633 37.1172C28.0488 36.9642 28.2702 36.8438 28.5273 36.7559C28.7878 36.6647 29.0775 36.6191 29.3965 36.6191C29.7806 36.6191 30.1191 36.6842 30.4121 36.8145C30.7083 36.9447 30.9395 37.1416 31.1055 37.4053C31.2747 37.6657 31.3594 37.9928 31.3594 38.3867V40.8477C31.3594 41.0234 31.374 41.2106 31.4033 41.4092C31.4359 41.6077 31.4831 41.7786 31.5449 41.9219V42H30.6025C30.557 41.8958 30.5212 41.7575 30.4951 41.585C30.4691 41.4092 30.4561 41.2464 30.4561 41.0967ZM30.6123 38.7969L30.6221 39.4316H29.709C29.4518 39.4316 29.2223 39.4528 29.0205 39.4951C28.8187 39.5342 28.6494 39.5944 28.5127 39.6758C28.376 39.7572 28.2718 39.8597 28.2002 39.9834C28.1286 40.1038 28.0928 40.2454 28.0928 40.4082C28.0928 40.5742 28.1302 40.7256 28.2051 40.8623C28.2799 40.999 28.3923 41.1081 28.542 41.1895C28.695 41.2676 28.8822 41.3066 29.1035 41.3066C29.3802 41.3066 29.6243 41.248 29.8359 41.1309C30.0475 41.0137 30.2152 40.8704 30.3389 40.7012C30.4658 40.5319 30.5342 40.3675 30.5439 40.208L30.9297 40.6426C30.9069 40.7793 30.8451 40.9307 30.7441 41.0967C30.6432 41.2627 30.5081 41.4222 30.3389 41.5752C30.1729 41.7249 29.9743 41.8503 29.7432 41.9512C29.5153 42.0488 29.2581 42.0977 28.9717 42.0977C28.6136 42.0977 28.2995 42.0277 28.0293 41.8877C27.7624 41.7477 27.554 41.5605 27.4043 41.3262C27.2578 41.0885 27.1846 40.8232 27.1846 40.5303C27.1846 40.2471 27.2399 39.998 27.3506 39.7832C27.4613 39.5651 27.6208 39.3844 27.8291 39.2412C28.0374 39.0947 28.2881 38.984 28.5811 38.9092C28.874 38.8343 29.2012 38.7969 29.5625 38.7969H30.6123ZM37.2607 39.6758H35.5273L35.5176 38.9531H36.9336C37.2135 38.9531 37.4463 38.9255 37.6318 38.8701C37.8206 38.8148 37.9622 38.7318 38.0566 38.6211C38.151 38.5104 38.1982 38.3737 38.1982 38.2109C38.1982 38.084 38.1706 37.9733 38.1152 37.8789C38.0632 37.7812 37.9834 37.7015 37.876 37.6396C37.7686 37.5745 37.6351 37.5273 37.4756 37.498C37.3193 37.4655 37.1354 37.4492 36.9238 37.4492H35.7666V42H34.8633V36.7168H36.9238C37.2591 36.7168 37.5602 36.7461 37.8271 36.8047C38.0973 36.8633 38.3268 36.9528 38.5156 37.0732C38.7077 37.1904 38.8542 37.3402 38.9551 37.5225C39.056 37.7048 39.1064 37.9196 39.1064 38.167C39.1064 38.3265 39.0739 38.4779 39.0088 38.6211C38.9437 38.7643 38.8477 38.8913 38.7207 39.002C38.5938 39.1126 38.4375 39.2038 38.252 39.2754C38.0664 39.3438 37.8532 39.3877 37.6123 39.4072L37.2607 39.6758ZM37.2607 42H35.2002L35.6494 41.2676H37.2607C37.5114 41.2676 37.7197 41.2367 37.8857 41.1748C38.0518 41.1097 38.1755 41.0186 38.2568 40.9014C38.3415 40.7809 38.3838 40.6377 38.3838 40.4717C38.3838 40.3057 38.3415 40.1641 38.2568 40.0469C38.1755 39.9264 38.0518 39.8353 37.8857 39.7734C37.7197 39.7083 37.5114 39.6758 37.2607 39.6758H35.8887L35.8984 38.9531H37.6123L37.9395 39.2266C38.2292 39.2493 38.4749 39.321 38.6768 39.4414C38.8786 39.5618 39.0316 39.7148 39.1357 39.9004C39.2399 40.0827 39.292 40.2812 39.292 40.4961C39.292 40.7435 39.2448 40.9616 39.1504 41.1504C39.0592 41.3392 38.9258 41.4971 38.75 41.624C38.5742 41.7477 38.361 41.8421 38.1104 41.9072C37.8597 41.9691 37.5765 42 37.2607 42ZM46.0869 39.0068V39.7393H43.2939V39.0068H46.0869ZM43.4844 36.7168V42H42.5811V36.7168H43.4844ZM46.8193 36.7168V42H45.9111V36.7168H46.8193ZM53.3896 41.0967V38.377C53.3896 38.1686 53.3473 37.988 53.2627 37.835C53.1813 37.6787 53.0576 37.5583 52.8916 37.4736C52.7256 37.389 52.5205 37.3467 52.2764 37.3467C52.0485 37.3467 51.8483 37.3857 51.6758 37.4639C51.5065 37.542 51.373 37.6445 51.2754 37.7715C51.181 37.8984 51.1338 38.0352 51.1338 38.1816H50.2305C50.2305 37.9928 50.2793 37.8057 50.377 37.6201C50.4746 37.4346 50.6146 37.2669 50.7969 37.1172C50.9824 36.9642 51.2038 36.8438 51.4609 36.7559C51.7214 36.6647 52.0111 36.6191 52.3301 36.6191C52.7142 36.6191 53.0527 36.6842 53.3457 36.8145C53.6419 36.9447 53.873 37.1416 54.0391 37.4053C54.2083 37.6657 54.293 37.9928 54.293 38.3867V40.8477C54.293 41.0234 54.3076 41.2106 54.3369 41.4092C54.3695 41.6077 54.4167 41.7786 54.4785 41.9219V42H53.5361C53.4906 41.8958 53.4548 41.7575 53.4287 41.585C53.4027 41.4092 53.3896 41.2464 53.3896 41.0967ZM53.5459 38.7969L53.5557 39.4316H52.6426C52.3854 39.4316 52.1559 39.4528 51.9541 39.4951C51.7523 39.5342 51.583 39.5944 51.4463 39.6758C51.3096 39.7572 51.2054 39.8597 51.1338 39.9834C51.0622 40.1038 51.0264 40.2454 51.0264 40.4082C51.0264 40.5742 51.0638 40.7256 51.1387 40.8623C51.2135 40.999 51.3258 41.1081 51.4756 41.1895C51.6286 41.2676 51.8158 41.3066 52.0371 41.3066C52.3138 41.3066 52.5579 41.248 52.7695 41.1309C52.9811 41.0137 53.1488 40.8704 53.2725 40.7012C53.3994 40.5319 53.4678 40.3675 53.4775 40.208L53.8633 40.6426C53.8405 40.7793 53.7786 40.9307 53.6777 41.0967C53.5768 41.2627 53.4417 41.4222 53.2725 41.5752C53.1064 41.7249 52.9079 41.8503 52.6768 41.9512C52.4489 42.0488 52.1917 42.0977 51.9053 42.0977C51.5472 42.0977 51.2331 42.0277 50.9629 41.8877C50.696 41.7477 50.4876 41.5605 50.3379 41.3262C50.1914 41.0885 50.1182 40.8232 50.1182 40.5303C50.1182 40.2471 50.1735 39.998 50.2842 39.7832C50.3949 39.5651 50.5544 39.3844 50.7627 39.2412C50.971 39.0947 51.2217 38.984 51.5146 38.9092C51.8076 38.8343 52.1348 38.7969 52.4961 38.7969H53.5459ZM58.7832 39.4805H59.7598L58.2314 42H57.2549L58.7832 39.4805ZM59.54 36.7168H61.7471V42H60.8438V37.4492H59.54C59.2829 37.4492 59.0729 37.4932 58.9102 37.5811C58.7474 37.6657 58.6286 37.7764 58.5537 37.9131C58.4788 38.0498 58.4414 38.1914 58.4414 38.3379C58.4414 38.4811 58.4756 38.6195 58.5439 38.7529C58.6123 38.8831 58.7197 38.9906 58.8662 39.0752C59.0127 39.1598 59.2015 39.2021 59.4326 39.2021H61.0879V39.9443H59.4326C59.1299 39.9443 58.8613 39.9036 58.627 39.8223C58.3926 39.7409 58.194 39.6286 58.0312 39.4854C57.8685 39.3389 57.7448 39.168 57.6602 38.9727C57.5755 38.7741 57.5332 38.5592 57.5332 38.3281C57.5332 38.097 57.5771 37.8838 57.665 37.6885C57.7562 37.4932 57.8864 37.3223 58.0557 37.1758C58.2282 37.0293 58.4382 36.917 58.6855 36.8389C58.9362 36.7575 59.221 36.7168 59.54 36.7168Z" fill="white"/>
</svg>
