<svg width="75" height="51" viewBox="0 0 75 51" fill="none" xmlns="http://www.w3.org/2000/svg">
<path d="M37.5 29.5625V14.9375" stroke="#A9B7C5" stroke-width="3" stroke-linecap="round" stroke-linejoin="round"/>
<path d="M37.9569 24.4031C38.7024 24.9108 39.5453 25.2579 40.4322 25.4221C41.319 25.5864 42.2303 25.5643 43.1081 25.3573C43.986 25.1502 44.8111 24.7628 45.5311 24.2195C46.2511 23.6763 46.8501 22.9891 47.2901 22.2018C47.7301 21.4145 48.0014 20.5442 48.0868 19.6463C48.1722 18.7485 48.0698 17.8427 47.7861 16.9865C47.5025 16.1303 47.0437 15.3426 46.4391 14.6734C45.8345 14.0041 45.0972 13.468 44.2741 13.0992C44.0934 13.0083 43.9498 12.8576 43.8679 12.6726C43.3413 11.4183 42.4561 10.3474 41.3232 9.59431C40.1903 8.84121 38.8603 8.43945 37.4999 8.43945C36.1395 8.43945 34.8095 8.84121 33.6766 9.59431C32.5437 10.3474 31.6585 11.4183 31.1319 12.6726C31.05 12.8576 30.9064 13.0083 30.7257 13.0992C29.9026 13.468 29.1653 14.0041 28.5607 14.6734C27.9561 15.3426 27.4973 16.1303 27.2136 16.9865C26.93 17.8427 26.8276 18.7485 26.913 19.6463C26.9984 20.5442 27.2697 21.4145 27.7097 22.2018C28.1497 22.9891 28.7487 23.6763 29.4687 24.2195C30.1887 24.7628 31.0138 25.1502 31.8916 25.3573C32.7695 25.5643 33.6808 25.5864 34.5676 25.4221C35.4545 25.2579 36.2974 24.9108 37.0429 24.4031C37.1786 24.314 37.3375 24.2665 37.4999 24.2665C37.6623 24.2665 37.8212 24.314 37.9569 24.4031Z" stroke="#A9B7C5" stroke-width="3" stroke-linecap="round" stroke-linejoin="round"/>
<path d="M37.5 21.4375L32.625 19" stroke="#A9B7C5" stroke-width="3" stroke-linecap="round" stroke-linejoin="round"/>
<path d="M37.5 19L42.375 16.5625" stroke="#A9B7C5" stroke-width="3" stroke-linecap="round" stroke-linejoin="round"/>
<path d="M10.9621 43V36H11.9621V42.13H15.7521V43H10.9621ZM20.0496 43V41.88L19.9996 41.67V39.76C19.9996 39.3533 19.8796 39.04 19.6396 38.82C19.4063 38.5933 19.0529 38.48 18.5796 38.48C18.2663 38.48 17.9596 38.5333 17.6596 38.64C17.3596 38.74 17.1063 38.8767 16.8996 39.05L16.4996 38.33C16.7729 38.11 17.0996 37.9433 17.4796 37.83C17.8663 37.71 18.2696 37.65 18.6896 37.65C19.4163 37.65 19.9763 37.8267 20.3696 38.18C20.7629 38.5333 20.9596 39.0733 20.9596 39.8V43H20.0496ZM18.3096 43.06C17.9163 43.06 17.5696 42.9933 17.2696 42.86C16.9763 42.7267 16.7496 42.5433 16.5896 42.31C16.4296 42.07 16.3496 41.8 16.3496 41.5C16.3496 41.2133 16.4163 40.9533 16.5496 40.72C16.6896 40.4867 16.9129 40.3 17.2196 40.16C17.5329 40.02 17.9529 39.95 18.4796 39.95H20.1596V40.64H18.5196C18.0396 40.64 17.7163 40.72 17.5496 40.88C17.3829 41.04 17.2996 41.2333 17.2996 41.46C17.2996 41.72 17.4029 41.93 17.6096 42.09C17.8163 42.2433 18.1029 42.32 18.4696 42.32C18.8296 42.32 19.1429 42.24 19.4096 42.08C19.6829 41.92 19.8796 41.6867 19.9996 41.38L20.1896 42.04C20.0629 42.3533 19.8396 42.6033 19.5196 42.79C19.1996 42.97 18.7963 43.06 18.3096 43.06ZM25.5662 37.65C25.9995 37.65 26.3795 37.7333 26.7062 37.9C27.0395 38.0667 27.2995 38.32 27.4862 38.66C27.6728 39 27.7662 39.43 27.7662 39.95V43H26.8062V40.06C26.8062 39.5467 26.6795 39.16 26.4262 38.9C26.1795 38.64 25.8295 38.51 25.3762 38.51C25.0362 38.51 24.7395 38.5767 24.4862 38.71C24.2328 38.8433 24.0362 39.04 23.8962 39.3C23.7628 39.56 23.6962 39.8833 23.6962 40.27V43H22.7362V37.7H23.6562V39.13L23.5062 38.75C23.6795 38.4033 23.9462 38.1333 24.3062 37.94C24.6662 37.7467 25.0862 37.65 25.5662 37.65ZM31.7328 43.06C31.2195 43.06 30.7595 42.9467 30.3528 42.72C29.9528 42.4933 29.6361 42.1767 29.4028 41.77C29.1695 41.3633 29.0528 40.89 29.0528 40.35C29.0528 39.81 29.1695 39.34 29.4028 38.94C29.6361 38.5333 29.9528 38.2167 30.3528 37.99C30.7595 37.7633 31.2195 37.65 31.7328 37.65C32.1795 37.65 32.5828 37.75 32.9428 37.95C33.3028 38.15 33.5895 38.45 33.8028 38.85C34.0228 39.25 34.1328 39.75 34.1328 40.35C34.1328 40.95 34.0261 41.45 33.8128 41.85C33.6061 42.25 33.3228 42.5533 32.9628 42.76C32.6028 42.96 32.1928 43.06 31.7328 43.06ZM31.8128 42.22C32.1461 42.22 32.4461 42.1433 32.7128 41.99C32.9861 41.8367 33.1995 41.62 33.3528 41.34C33.5128 41.0533 33.5928 40.7233 33.5928 40.35C33.5928 39.97 33.5128 39.6433 33.3528 39.37C33.1995 39.09 32.9861 38.8733 32.7128 38.72C32.4461 38.5667 32.1461 38.49 31.8128 38.49C31.4728 38.49 31.1695 38.5667 30.9028 38.72C30.6361 38.8733 30.4228 39.09 30.2628 39.37C30.1028 39.6433 30.0228 39.97 30.0228 40.35C30.0228 40.7233 30.1028 41.0533 30.2628 41.34C30.4228 41.62 30.6361 41.8367 30.9028 41.99C31.1695 42.1433 31.4728 42.22 31.8128 42.22ZM33.6228 43V41.57L33.6828 40.34L33.5828 39.11V35.58H34.5428V43H33.6228ZM37.8792 43.06C37.4392 43.06 37.0192 43 36.6192 42.88C36.2259 42.76 35.9159 42.6133 35.6892 42.44L36.0892 41.68C36.3159 41.8333 36.5959 41.9633 36.9292 42.07C37.2626 42.1767 37.6026 42.23 37.9492 42.23C38.3959 42.23 38.7159 42.1667 38.9092 42.04C39.1092 41.9133 39.2092 41.7367 39.2092 41.51C39.2092 41.3433 39.1492 41.2133 39.0292 41.12C38.9092 41.0267 38.7492 40.9567 38.5492 40.91C38.3559 40.8633 38.1392 40.8233 37.8992 40.79C37.6592 40.75 37.4192 40.7033 37.1792 40.65C36.9392 40.59 36.7192 40.51 36.5192 40.41C36.3192 40.3033 36.1592 40.16 36.0392 39.98C35.9192 39.7933 35.8592 39.5467 35.8592 39.24C35.8592 38.92 35.9492 38.64 36.1292 38.4C36.3092 38.16 36.5626 37.9767 36.8892 37.85C37.2226 37.7167 37.6159 37.65 38.0692 37.65C38.4159 37.65 38.7659 37.6933 39.1192 37.78C39.4792 37.86 39.7726 37.9767 39.9992 38.13L39.5892 38.89C39.3492 38.73 39.0992 38.62 38.8392 38.56C38.5792 38.5 38.3192 38.47 38.0592 38.47C37.6392 38.47 37.3259 38.54 37.1192 38.68C36.9126 38.8133 36.8092 38.9867 36.8092 39.2C36.8092 39.38 36.8692 39.52 36.9892 39.62C37.1159 39.7133 37.2759 39.7867 37.4692 39.84C37.6692 39.8933 37.8892 39.94 38.1292 39.98C38.3692 40.0133 38.6092 40.06 38.8492 40.12C39.0892 40.1733 39.3059 40.25 39.4992 40.35C39.6992 40.45 39.8592 40.59 39.9792 40.77C40.1059 40.95 40.1692 41.19 40.1692 41.49C40.1692 41.81 40.0759 42.0867 39.8892 42.32C39.7026 42.5533 39.4392 42.7367 39.0992 42.87C38.7592 42.9967 38.3526 43.06 37.8792 43.06ZM43.679 43.06C43.139 43.06 42.6557 42.9433 42.229 42.71C41.809 42.4767 41.479 42.1567 41.239 41.75C40.999 41.3433 40.879 40.8767 40.879 40.35C40.879 39.8233 40.999 39.3567 41.239 38.95C41.479 38.5433 41.809 38.2267 42.229 38C42.6557 37.7667 43.139 37.65 43.679 37.65C44.159 37.65 44.5857 37.7467 44.959 37.94C45.339 38.1267 45.6323 38.4067 45.839 38.78L45.109 39.25C44.9357 38.99 44.7223 38.8 44.469 38.68C44.2223 38.5533 43.9557 38.49 43.669 38.49C43.3223 38.49 43.0123 38.5667 42.739 38.72C42.4657 38.8733 42.249 39.09 42.089 39.37C41.929 39.6433 41.849 39.97 41.849 40.35C41.849 40.73 41.929 41.06 42.089 41.34C42.249 41.62 42.4657 41.8367 42.739 41.99C43.0123 42.1433 43.3223 42.22 43.669 42.22C43.9557 42.22 44.2223 42.16 44.469 42.04C44.7223 41.9133 44.9357 41.72 45.109 41.46L45.839 41.92C45.6323 42.2867 45.339 42.57 44.959 42.77C44.5857 42.9633 44.159 43.06 43.679 43.06ZM50.3719 43V41.88L50.3219 41.67V39.76C50.3219 39.3533 50.2019 39.04 49.9619 38.82C49.7285 38.5933 49.3752 38.48 48.9019 38.48C48.5885 38.48 48.2819 38.5333 47.9819 38.64C47.6819 38.74 47.4285 38.8767 47.2219 39.05L46.8219 38.33C47.0952 38.11 47.4219 37.9433 47.8019 37.83C48.1885 37.71 48.5919 37.65 49.0119 37.65C49.7385 37.65 50.2985 37.8267 50.6919 38.18C51.0852 38.5333 51.2819 39.0733 51.2819 39.8V43H50.3719ZM48.6319 43.06C48.2385 43.06 47.8919 42.9933 47.5919 42.86C47.2985 42.7267 47.0719 42.5433 46.9119 42.31C46.7519 42.07 46.6719 41.8 46.6719 41.5C46.6719 41.2133 46.7385 40.9533 46.8719 40.72C47.0119 40.4867 47.2352 40.3 47.5419 40.16C47.8552 40.02 48.2752 39.95 48.8019 39.95H50.4819V40.64H48.8419C48.3619 40.64 48.0385 40.72 47.8719 40.88C47.7052 41.04 47.6219 41.2333 47.6219 41.46C47.6219 41.72 47.7252 41.93 47.9319 42.09C48.1385 42.2433 48.4252 42.32 48.7919 42.32C49.1519 42.32 49.4652 42.24 49.7319 42.08C50.0052 41.92 50.2019 41.6867 50.3219 41.38L50.5119 42.04C50.3852 42.3533 50.1619 42.6033 49.8419 42.79C49.5219 42.97 49.1185 43.06 48.6319 43.06ZM55.8684 43.06C55.4284 43.06 55.0251 42.96 54.6584 42.76C54.2984 42.5533 54.0084 42.25 53.7884 41.85C53.5751 41.45 53.4684 40.95 53.4684 40.35C53.4684 39.75 53.5718 39.25 53.7784 38.85C53.9918 38.45 54.2784 38.15 54.6384 37.95C55.0051 37.75 55.4151 37.65 55.8684 37.65C56.3884 37.65 56.8484 37.7633 57.2484 37.99C57.6484 38.2167 57.9651 38.5333 58.1984 38.94C58.4318 39.34 58.5484 39.81 58.5484 40.35C58.5484 40.89 58.4318 41.3633 58.1984 41.77C57.9651 42.1767 57.6484 42.4933 57.2484 42.72C56.8484 42.9467 56.3884 43.06 55.8684 43.06ZM53.0584 44.94V37.7H53.9784V39.13L53.9184 40.36L54.0184 41.59V44.94H53.0584ZM55.7884 42.22C56.1284 42.22 56.4318 42.1433 56.6984 41.99C56.9718 41.8367 57.1851 41.62 57.3384 41.34C57.4984 41.0533 57.5784 40.7233 57.5784 40.35C57.5784 39.97 57.4984 39.6433 57.3384 39.37C57.1851 39.09 56.9718 38.8733 56.6984 38.72C56.4318 38.5667 56.1284 38.49 55.7884 38.49C55.4551 38.49 55.1518 38.5667 54.8784 38.72C54.6118 38.8733 54.3984 39.09 54.2384 39.37C54.0851 39.6433 54.0084 39.97 54.0084 40.35C54.0084 40.7233 54.0851 41.0533 54.2384 41.34C54.3984 41.62 54.6118 41.8367 54.8784 41.99C55.1518 42.1433 55.4551 42.22 55.7884 42.22ZM62.2348 43.06C61.6682 43.06 61.1682 42.9433 60.7348 42.71C60.3082 42.4767 59.9748 42.1567 59.7348 41.75C59.5015 41.3433 59.3848 40.8767 59.3848 40.35C59.3848 39.8233 59.4982 39.3567 59.7248 38.95C59.9582 38.5433 60.2748 38.2267 60.6748 38C61.0815 37.7667 61.5382 37.65 62.0448 37.65C62.5582 37.65 63.0115 37.7633 63.4048 37.99C63.7982 38.2167 64.1048 38.5367 64.3248 38.95C64.5515 39.3567 64.6648 39.8333 64.6648 40.38C64.6648 40.42 64.6615 40.4667 64.6548 40.52C64.6548 40.5733 64.6515 40.6233 64.6448 40.67H60.1348V39.98H64.1448L63.7548 40.22C63.7615 39.88 63.6915 39.5767 63.5448 39.31C63.3982 39.0433 63.1948 38.8367 62.9348 38.69C62.6815 38.5367 62.3848 38.46 62.0448 38.46C61.7115 38.46 61.4148 38.5367 61.1548 38.69C60.8948 38.8367 60.6915 39.0467 60.5448 39.32C60.3982 39.5867 60.3248 39.8933 60.3248 40.24V40.4C60.3248 40.7533 60.4048 41.07 60.5648 41.35C60.7315 41.6233 60.9615 41.8367 61.2548 41.99C61.5482 42.1433 61.8848 42.22 62.2648 42.22C62.5782 42.22 62.8615 42.1667 63.1148 42.06C63.3748 41.9533 63.6015 41.7933 63.7948 41.58L64.3248 42.2C64.0848 42.48 63.7848 42.6933 63.4248 42.84C63.0715 42.9867 62.6748 43.06 62.2348 43.06Z" fill="#707982"/>
</svg>
