<svg width="369" height="52" viewBox="0 0 369 52" fill="none" xmlns="http://www.w3.org/2000/svg">
<g clip-path="url(#clip0_7949_3935)">
<path d="M46.1734 17.1313L38.0484 9.74769C37.8987 9.61066 37.703 9.53467 37.5 9.53467C37.297 9.53467 37.1013 9.61066 36.9516 9.74769L28.8266 17.1313C28.7448 17.2085 28.6793 17.3013 28.634 17.4042C28.5886 17.5071 28.5643 17.6181 28.5625 17.7305V27.125C28.5625 27.3405 28.6481 27.5472 28.8005 27.6996C28.9528 27.8519 29.1595 27.9375 29.375 27.9375H45.625C45.8405 27.9375 46.0472 27.8519 46.1995 27.6996C46.3519 27.5472 46.4375 27.3405 46.4375 27.125V17.7305C46.4357 17.6181 46.4114 17.5071 46.366 17.4042C46.3207 17.3013 46.2552 17.2085 46.1734 17.1313Z" fill="white" stroke="white" stroke-width="3" stroke-linecap="round" stroke-linejoin="round"/>
<path d="M17.7207 34.8906V35.6621H14.293V42H13.3555V34.8906H17.7207ZM23.0898 36.7168V37.4639H20.5361V36.7168H23.0898ZM23.8857 36.7168V42H22.9824V36.7168H23.8857ZM20.3164 36.7168H21.2246L21.0879 39.2656C21.0651 39.6595 21.0277 40.0078 20.9756 40.3105C20.9268 40.61 20.8584 40.8672 20.7705 41.082C20.6859 41.2969 20.5785 41.4727 20.4482 41.6094C20.3213 41.7428 20.1683 41.8421 19.9893 41.9072C19.8102 41.9691 19.6035 42 19.3691 42H19.0859V41.2041L19.2812 41.1895C19.4212 41.1797 19.54 41.1471 19.6377 41.0918C19.7386 41.0365 19.8232 40.9551 19.8916 40.8477C19.96 40.737 20.0153 40.5954 20.0576 40.4229C20.1032 40.2503 20.1374 40.0452 20.1602 39.8076C20.1862 39.57 20.2057 39.2933 20.2188 38.9775L20.3164 36.7168ZM30.4561 41.0967V38.377C30.4561 38.1686 30.4137 37.988 30.3291 37.835C30.2477 37.6787 30.124 37.5583 29.958 37.4736C29.792 37.389 29.5869 37.3467 29.3428 37.3467C29.1149 37.3467 28.9147 37.3857 28.7422 37.4639C28.5729 37.542 28.4395 37.6445 28.3418 37.7715C28.2474 37.8984 28.2002 38.0352 28.2002 38.1816H27.2969C27.2969 37.9928 27.3457 37.8057 27.4434 37.6201C27.541 37.4346 27.681 37.2669 27.8633 37.1172C28.0488 36.9642 28.2702 36.8438 28.5273 36.7559C28.7878 36.6647 29.0775 36.6191 29.3965 36.6191C29.7806 36.6191 30.1191 36.6842 30.4121 36.8145C30.7083 36.9447 30.9395 37.1416 31.1055 37.4053C31.2747 37.6657 31.3594 37.9928 31.3594 38.3867V40.8477C31.3594 41.0234 31.374 41.2106 31.4033 41.4092C31.4359 41.6077 31.4831 41.7786 31.5449 41.9219V42H30.6025C30.557 41.8958 30.5212 41.7575 30.4951 41.585C30.4691 41.4092 30.4561 41.2464 30.4561 41.0967ZM30.6123 38.7969L30.6221 39.4316H29.709C29.4518 39.4316 29.2223 39.4528 29.0205 39.4951C28.8187 39.5342 28.6494 39.5944 28.5127 39.6758C28.376 39.7572 28.2718 39.8597 28.2002 39.9834C28.1286 40.1038 28.0928 40.2454 28.0928 40.4082C28.0928 40.5742 28.1302 40.7256 28.2051 40.8623C28.2799 40.999 28.3923 41.1081 28.542 41.1895C28.695 41.2676 28.8822 41.3066 29.1035 41.3066C29.3802 41.3066 29.6243 41.248 29.8359 41.1309C30.0475 41.0137 30.2152 40.8704 30.3389 40.7012C30.4658 40.5319 30.5342 40.3675 30.5439 40.208L30.9297 40.6426C30.9069 40.7793 30.8451 40.9307 30.7441 41.0967C30.6432 41.2627 30.5081 41.4222 30.3389 41.5752C30.1729 41.7249 29.9743 41.8503 29.7432 41.9512C29.5153 42.0488 29.2581 42.0977 28.9717 42.0977C28.6136 42.0977 28.2995 42.0277 28.0293 41.8877C27.7624 41.7477 27.554 41.5605 27.4043 41.3262C27.2578 41.0885 27.1846 40.8232 27.1846 40.5303C27.1846 40.2471 27.2399 39.998 27.3506 39.7832C27.4613 39.5651 27.6208 39.3844 27.8291 39.2412C28.0374 39.0947 28.2881 38.984 28.5811 38.9092C28.874 38.8343 29.2012 38.7969 29.5625 38.7969H30.6123ZM37.2607 39.6758H35.5273L35.5176 38.9531H36.9336C37.2135 38.9531 37.4463 38.9255 37.6318 38.8701C37.8206 38.8148 37.9622 38.7318 38.0566 38.6211C38.151 38.5104 38.1982 38.3737 38.1982 38.2109C38.1982 38.084 38.1706 37.9733 38.1152 37.8789C38.0632 37.7812 37.9834 37.7015 37.876 37.6396C37.7686 37.5745 37.6351 37.5273 37.4756 37.498C37.3193 37.4655 37.1354 37.4492 36.9238 37.4492H35.7666V42H34.8633V36.7168H36.9238C37.2591 36.7168 37.5602 36.7461 37.8271 36.8047C38.0973 36.8633 38.3268 36.9528 38.5156 37.0732C38.7077 37.1904 38.8542 37.3402 38.9551 37.5225C39.056 37.7048 39.1064 37.9196 39.1064 38.167C39.1064 38.3265 39.0739 38.4779 39.0088 38.6211C38.9437 38.7643 38.8477 38.8913 38.7207 39.002C38.5938 39.1126 38.4375 39.2038 38.252 39.2754C38.0664 39.3438 37.8532 39.3877 37.6123 39.4072L37.2607 39.6758ZM37.2607 42H35.2002L35.6494 41.2676H37.2607C37.5114 41.2676 37.7197 41.2367 37.8857 41.1748C38.0518 41.1097 38.1755 41.0186 38.2568 40.9014C38.3415 40.7809 38.3838 40.6377 38.3838 40.4717C38.3838 40.3057 38.3415 40.1641 38.2568 40.0469C38.1755 39.9264 38.0518 39.8353 37.8857 39.7734C37.7197 39.7083 37.5114 39.6758 37.2607 39.6758H35.8887L35.8984 38.9531H37.6123L37.9395 39.2266C38.2292 39.2493 38.4749 39.321 38.6768 39.4414C38.8786 39.5618 39.0316 39.7148 39.1357 39.9004C39.2399 40.0827 39.292 40.2812 39.292 40.4961C39.292 40.7435 39.2448 40.9616 39.1504 41.1504C39.0592 41.3392 38.9258 41.4971 38.75 41.624C38.5742 41.7477 38.361 41.8421 38.1104 41.9072C37.8597 41.9691 37.5765 42 37.2607 42ZM46.0869 39.0068V39.7393H43.2939V39.0068H46.0869ZM43.4844 36.7168V42H42.5811V36.7168H43.4844ZM46.8193 36.7168V42H45.9111V36.7168H46.8193ZM53.3896 41.0967V38.377C53.3896 38.1686 53.3473 37.988 53.2627 37.835C53.1813 37.6787 53.0576 37.5583 52.8916 37.4736C52.7256 37.389 52.5205 37.3467 52.2764 37.3467C52.0485 37.3467 51.8483 37.3857 51.6758 37.4639C51.5065 37.542 51.373 37.6445 51.2754 37.7715C51.181 37.8984 51.1338 38.0352 51.1338 38.1816H50.2305C50.2305 37.9928 50.2793 37.8057 50.377 37.6201C50.4746 37.4346 50.6146 37.2669 50.7969 37.1172C50.9824 36.9642 51.2038 36.8438 51.4609 36.7559C51.7214 36.6647 52.0111 36.6191 52.3301 36.6191C52.7142 36.6191 53.0527 36.6842 53.3457 36.8145C53.6419 36.9447 53.873 37.1416 54.0391 37.4053C54.2083 37.6657 54.293 37.9928 54.293 38.3867V40.8477C54.293 41.0234 54.3076 41.2106 54.3369 41.4092C54.3695 41.6077 54.4167 41.7786 54.4785 41.9219V42H53.5361C53.4906 41.8958 53.4548 41.7575 53.4287 41.585C53.4027 41.4092 53.3896 41.2464 53.3896 41.0967ZM53.5459 38.7969L53.5557 39.4316H52.6426C52.3854 39.4316 52.1559 39.4528 51.9541 39.4951C51.7523 39.5342 51.583 39.5944 51.4463 39.6758C51.3096 39.7572 51.2054 39.8597 51.1338 39.9834C51.0622 40.1038 51.0264 40.2454 51.0264 40.4082C51.0264 40.5742 51.0638 40.7256 51.1387 40.8623C51.2135 40.999 51.3258 41.1081 51.4756 41.1895C51.6286 41.2676 51.8158 41.3066 52.0371 41.3066C52.3138 41.3066 52.5579 41.248 52.7695 41.1309C52.9811 41.0137 53.1488 40.8704 53.2725 40.7012C53.3994 40.5319 53.4678 40.3675 53.4775 40.208L53.8633 40.6426C53.8405 40.7793 53.7786 40.9307 53.6777 41.0967C53.5768 41.2627 53.4417 41.4222 53.2725 41.5752C53.1064 41.7249 52.9079 41.8503 52.6768 41.9512C52.4489 42.0488 52.1917 42.0977 51.9053 42.0977C51.5472 42.0977 51.2331 42.0277 50.9629 41.8877C50.696 41.7477 50.4876 41.5605 50.3379 41.3262C50.1914 41.0885 50.1182 40.8232 50.1182 40.5303C50.1182 40.2471 50.1735 39.998 50.2842 39.7832C50.3949 39.5651 50.5544 39.3844 50.7627 39.2412C50.971 39.0947 51.2217 38.984 51.5146 38.9092C51.8076 38.8343 52.1348 38.7969 52.4961 38.7969H53.5459ZM58.7832 39.4805H59.7598L58.2314 42H57.2549L58.7832 39.4805ZM59.54 36.7168H61.7471V42H60.8438V37.4492H59.54C59.2829 37.4492 59.0729 37.4932 58.9102 37.5811C58.7474 37.6657 58.6286 37.7764 58.5537 37.9131C58.4788 38.0498 58.4414 38.1914 58.4414 38.3379C58.4414 38.4811 58.4756 38.6195 58.5439 38.7529C58.6123 38.8831 58.7197 38.9906 58.8662 39.0752C59.0127 39.1598 59.2015 39.2021 59.4326 39.2021H61.0879V39.9443H59.4326C59.1299 39.9443 58.8613 39.9036 58.627 39.8223C58.3926 39.7409 58.194 39.6286 58.0312 39.4854C57.8685 39.3389 57.7448 39.168 57.6602 38.9727C57.5755 38.7741 57.5332 38.5592 57.5332 38.3281C57.5332 38.097 57.5771 37.8838 57.665 37.6885C57.7562 37.4932 57.8864 37.3223 58.0557 37.1758C58.2282 37.0293 58.4382 36.917 58.6855 36.8389C58.9362 36.7575 59.221 36.7168 59.54 36.7168Z" fill="white"/>
<path d="M187.5 29.5625V14.9375" stroke="white" stroke-width="3" stroke-linecap="round" stroke-linejoin="round"/>
<path d="M187.958 24.4031C188.703 24.9108 189.546 25.2579 190.433 25.4221C191.32 25.5864 192.231 25.5643 193.109 25.3573C193.987 25.1502 194.812 24.7628 195.532 24.2195C196.252 23.6763 196.851 22.9891 197.291 22.2018C197.731 21.4145 198.002 20.5442 198.088 19.6463C198.173 18.7485 198.071 17.8427 197.787 16.9865C197.503 16.1303 197.045 15.3426 196.44 14.6734C195.835 14.0041 195.098 13.468 194.275 13.0992C194.094 13.0083 193.951 12.8576 193.869 12.6726C193.342 11.4183 192.457 10.3474 191.324 9.59431C190.191 8.84121 188.861 8.43945 187.501 8.43945C186.141 8.43945 184.81 8.84121 183.678 9.59431C182.545 10.3474 181.659 11.4183 181.133 12.6726C181.051 12.8576 180.907 13.0083 180.727 13.0992C179.904 13.468 179.166 14.0041 178.562 14.6734C177.957 15.3426 177.498 16.1303 177.215 16.9865C176.931 17.8427 176.829 18.7485 176.914 19.6463C176.999 20.5442 177.271 21.4145 177.711 22.2018C178.151 22.9891 178.75 23.6763 179.47 24.2195C180.19 24.7628 181.015 25.1502 181.893 25.3573C182.77 25.5643 183.682 25.5864 184.569 25.4221C185.455 25.2579 186.298 24.9108 187.044 24.4031C187.18 24.314 187.338 24.2665 187.501 24.2665C187.663 24.2665 187.822 24.314 187.958 24.4031Z" stroke="white" stroke-width="3" stroke-linecap="round" stroke-linejoin="round"/>
<path d="M187.5 21.4375L182.625 19" stroke="white" stroke-width="3" stroke-linecap="round" stroke-linejoin="round"/>
<path d="M187.5 19L192.375 16.5625" stroke="white" stroke-width="3" stroke-linecap="round" stroke-linejoin="round"/>
<path d="M160.257 41.2334V42H156.702V41.2334H160.257ZM156.888 34.8906V42H155.945V34.8906H156.888ZM166.314 41.0967V38.377C166.314 38.1686 166.272 37.988 166.188 37.835C166.106 37.6787 165.982 37.5583 165.816 37.4736C165.65 37.389 165.445 37.3467 165.201 37.3467C164.973 37.3467 164.773 37.3857 164.601 37.4639C164.431 37.542 164.298 37.6445 164.2 37.7715C164.106 37.8984 164.059 38.0352 164.059 38.1816H163.155C163.155 37.9928 163.204 37.8057 163.302 37.6201C163.399 37.4346 163.539 37.2669 163.722 37.1172C163.907 36.9642 164.129 36.8438 164.386 36.7559C164.646 36.6647 164.936 36.6191 165.255 36.6191C165.639 36.6191 165.978 36.6842 166.271 36.8145C166.567 36.9447 166.798 37.1416 166.964 37.4053C167.133 37.6657 167.218 37.9928 167.218 38.3867V40.8477C167.218 41.0234 167.232 41.2106 167.262 41.4092C167.294 41.6077 167.341 41.7786 167.403 41.9219V42H166.461C166.415 41.8958 166.38 41.7575 166.354 41.585C166.327 41.4092 166.314 41.2464 166.314 41.0967ZM166.471 38.7969L166.48 39.4316H165.567C165.31 39.4316 165.081 39.4528 164.879 39.4951C164.677 39.5342 164.508 39.5944 164.371 39.6758C164.234 39.7572 164.13 39.8597 164.059 39.9834C163.987 40.1038 163.951 40.2454 163.951 40.4082C163.951 40.5742 163.989 40.7256 164.063 40.8623C164.138 40.999 164.251 41.1081 164.4 41.1895C164.553 41.2676 164.741 41.3066 164.962 41.3066C165.239 41.3066 165.483 41.248 165.694 41.1309C165.906 41.0137 166.074 40.8704 166.197 40.7012C166.324 40.5319 166.393 40.3675 166.402 40.208L166.788 40.6426C166.765 40.7793 166.703 40.9307 166.603 41.0967C166.502 41.2627 166.367 41.4222 166.197 41.5752C166.031 41.7249 165.833 41.8503 165.602 41.9512C165.374 42.0488 165.117 42.0977 164.83 42.0977C164.472 42.0977 164.158 42.0277 163.888 41.8877C163.621 41.7477 163.412 41.5605 163.263 41.3262C163.116 41.0885 163.043 40.8232 163.043 40.5303C163.043 40.2471 163.098 39.998 163.209 39.7832C163.32 39.5651 163.479 39.3844 163.688 39.2412C163.896 39.0947 164.146 38.984 164.439 38.9092C164.732 38.8343 165.06 38.7969 165.421 38.7969H166.471ZM171.542 37.8447V42H170.639V36.7168H171.493L171.542 37.8447ZM171.327 39.1582L170.951 39.1436C170.954 38.7822 171.008 38.4486 171.112 38.1426C171.216 37.8333 171.363 37.5648 171.552 37.3369C171.741 37.109 171.965 36.9333 172.226 36.8096C172.489 36.6826 172.781 36.6191 173.1 36.6191C173.36 36.6191 173.594 36.6549 173.803 36.7266C174.011 36.7949 174.188 36.9056 174.335 37.0586C174.485 37.2116 174.599 37.4102 174.677 37.6543C174.755 37.8952 174.794 38.1898 174.794 38.5381V42H173.886V38.5283C173.886 38.2516 173.845 38.0303 173.764 37.8643C173.682 37.695 173.563 37.5729 173.407 37.498C173.251 37.4199 173.059 37.3809 172.831 37.3809C172.606 37.3809 172.401 37.4281 172.216 37.5225C172.034 37.6169 171.876 37.7471 171.742 37.9131C171.612 38.0791 171.509 38.2695 171.435 38.4844C171.363 38.696 171.327 38.9206 171.327 39.1582ZM181.496 40.9746V34.5H182.404V42H181.574L181.496 40.9746ZM177.941 39.417V39.3145C177.941 38.9108 177.99 38.5446 178.088 38.2158C178.189 37.8838 178.33 37.599 178.513 37.3613C178.698 37.1237 178.918 36.9414 179.172 36.8145C179.429 36.6842 179.715 36.6191 180.031 36.6191C180.363 36.6191 180.653 36.6777 180.9 36.7949C181.151 36.9089 181.363 37.0765 181.535 37.2979C181.711 37.516 181.849 37.7796 181.95 38.0889C182.051 38.3981 182.121 38.748 182.16 39.1387V39.5879C182.124 39.9753 182.054 40.3236 181.95 40.6328C181.849 40.9421 181.711 41.2057 181.535 41.4238C181.363 41.6419 181.151 41.8096 180.9 41.9268C180.65 42.0407 180.357 42.0977 180.021 42.0977C179.712 42.0977 179.429 42.0309 179.172 41.8975C178.918 41.764 178.698 41.5768 178.513 41.3359C178.33 41.0951 178.189 40.8118 178.088 40.4863C177.99 40.1576 177.941 39.8011 177.941 39.417ZM178.85 39.3145V39.417C178.85 39.6807 178.876 39.9281 178.928 40.1592C178.983 40.3903 179.068 40.5938 179.182 40.7695C179.296 40.9453 179.44 41.0837 179.616 41.1846C179.792 41.2822 180.002 41.3311 180.246 41.3311C180.546 41.3311 180.791 41.2676 180.983 41.1406C181.179 41.0137 181.335 40.846 181.452 40.6377C181.569 40.4294 181.66 40.2031 181.726 39.959V38.7822C181.687 38.6032 181.63 38.4307 181.555 38.2646C181.483 38.0954 181.389 37.9456 181.271 37.8154C181.158 37.682 181.016 37.5762 180.847 37.498C180.681 37.4199 180.484 37.3809 180.256 37.3809C180.008 37.3809 179.795 37.4329 179.616 37.5371C179.44 37.638 179.296 37.778 179.182 37.957C179.068 38.1328 178.983 38.3379 178.928 38.5723C178.876 38.8034 178.85 39.0508 178.85 39.3145ZM188.887 40.5986C188.887 40.4684 188.857 40.348 188.799 40.2373C188.743 40.1234 188.628 40.0208 188.452 39.9297C188.28 39.8353 188.019 39.7539 187.671 39.6855C187.378 39.6237 187.113 39.5505 186.875 39.4658C186.641 39.3812 186.44 39.2786 186.274 39.1582C186.112 39.0378 185.986 38.8962 185.898 38.7334C185.811 38.5706 185.767 38.3802 185.767 38.1621C185.767 37.9538 185.812 37.7568 185.903 37.5713C185.998 37.3857 186.13 37.2214 186.299 37.0781C186.471 36.9349 186.678 36.8226 186.919 36.7412C187.16 36.6598 187.428 36.6191 187.725 36.6191C188.148 36.6191 188.509 36.694 188.809 36.8438C189.108 36.9935 189.338 37.1937 189.497 37.4443C189.657 37.6917 189.736 37.9668 189.736 38.2695H188.833C188.833 38.123 188.789 37.9814 188.701 37.8447C188.617 37.7048 188.491 37.5892 188.325 37.498C188.162 37.4069 187.962 37.3613 187.725 37.3613C187.474 37.3613 187.271 37.4004 187.114 37.4785C186.961 37.5534 186.849 37.6494 186.777 37.7666C186.709 37.8838 186.675 38.0075 186.675 38.1377C186.675 38.2354 186.691 38.3232 186.724 38.4014C186.759 38.4762 186.821 38.5462 186.909 38.6113C186.997 38.6732 187.121 38.7318 187.28 38.7871C187.44 38.8424 187.643 38.8978 187.891 38.9531C188.324 39.0508 188.68 39.168 188.96 39.3047C189.24 39.4414 189.448 39.609 189.585 39.8076C189.722 40.0062 189.79 40.2471 189.79 40.5303C189.79 40.7614 189.741 40.973 189.644 41.165C189.549 41.3571 189.411 41.5231 189.229 41.6631C189.049 41.7998 188.835 41.9072 188.584 41.9854C188.337 42.0602 188.058 42.0977 187.749 42.0977C187.284 42.0977 186.89 42.0146 186.567 41.8486C186.245 41.6826 186.001 41.4678 185.835 41.2041C185.669 40.9404 185.586 40.6621 185.586 40.3691H186.494C186.507 40.6165 186.579 40.8135 186.709 40.96C186.839 41.1032 186.999 41.2057 187.188 41.2676C187.376 41.3262 187.563 41.3555 187.749 41.3555C187.996 41.3555 188.203 41.3229 188.369 41.2578C188.538 41.1927 188.667 41.1032 188.755 40.9893C188.843 40.8753 188.887 40.7451 188.887 40.5986ZM195.091 41.3555C195.306 41.3555 195.504 41.3115 195.687 41.2236C195.869 41.1357 196.019 41.0153 196.136 40.8623C196.253 40.7061 196.32 40.5286 196.336 40.3301H197.195C197.179 40.6426 197.073 40.9339 196.878 41.2041C196.686 41.471 196.434 41.6875 196.121 41.8535C195.809 42.0163 195.465 42.0977 195.091 42.0977C194.694 42.0977 194.347 42.0277 194.051 41.8877C193.758 41.7477 193.514 41.5557 193.318 41.3115C193.126 41.0674 192.981 40.7874 192.884 40.4717C192.789 40.1527 192.742 39.8158 192.742 39.4609V39.2559C192.742 38.901 192.789 38.5658 192.884 38.25C192.981 37.931 193.126 37.6494 193.318 37.4053C193.514 37.1611 193.758 36.9691 194.051 36.8291C194.347 36.6891 194.694 36.6191 195.091 36.6191C195.504 36.6191 195.866 36.7038 196.175 36.873C196.484 37.0391 196.727 37.2669 196.902 37.5566C197.081 37.8431 197.179 38.1686 197.195 38.5332H196.336C196.32 38.3151 196.258 38.1182 196.15 37.9424C196.046 37.7666 195.903 37.6266 195.721 37.5225C195.542 37.415 195.332 37.3613 195.091 37.3613C194.814 37.3613 194.581 37.4167 194.393 37.5273C194.207 37.6348 194.059 37.7812 193.948 37.9668C193.841 38.1491 193.763 38.3525 193.714 38.5771C193.668 38.7985 193.646 39.0247 193.646 39.2559V39.4609C193.646 39.6921 193.668 39.9199 193.714 40.1445C193.759 40.3691 193.836 40.5726 193.943 40.7549C194.054 40.9372 194.202 41.0837 194.388 41.1943C194.576 41.3018 194.811 41.3555 195.091 41.3555ZM203.326 41.0967V38.377C203.326 38.1686 203.284 37.988 203.199 37.835C203.118 37.6787 202.994 37.5583 202.828 37.4736C202.662 37.389 202.457 37.3467 202.213 37.3467C201.985 37.3467 201.785 37.3857 201.612 37.4639C201.443 37.542 201.31 37.6445 201.212 37.7715C201.118 37.8984 201.07 38.0352 201.07 38.1816H200.167C200.167 37.9928 200.216 37.8057 200.313 37.6201C200.411 37.4346 200.551 37.2669 200.733 37.1172C200.919 36.9642 201.14 36.8438 201.397 36.7559C201.658 36.6647 201.948 36.6191 202.267 36.6191C202.651 36.6191 202.989 36.6842 203.282 36.8145C203.578 36.9447 203.81 37.1416 203.976 37.4053C204.145 37.6657 204.229 37.9928 204.229 38.3867V40.8477C204.229 41.0234 204.244 41.2106 204.273 41.4092C204.306 41.6077 204.353 41.7786 204.415 41.9219V42H203.473C203.427 41.8958 203.391 41.7575 203.365 41.585C203.339 41.4092 203.326 41.2464 203.326 41.0967ZM203.482 38.7969L203.492 39.4316H202.579C202.322 39.4316 202.092 39.4528 201.891 39.4951C201.689 39.5342 201.52 39.5944 201.383 39.6758C201.246 39.7572 201.142 39.8597 201.07 39.9834C200.999 40.1038 200.963 40.2454 200.963 40.4082C200.963 40.5742 201 40.7256 201.075 40.8623C201.15 40.999 201.262 41.1081 201.412 41.1895C201.565 41.2676 201.752 41.3066 201.974 41.3066C202.25 41.3066 202.494 41.248 202.706 41.1309C202.918 41.0137 203.085 40.8704 203.209 40.7012C203.336 40.5319 203.404 40.3675 203.414 40.208L203.8 40.6426C203.777 40.7793 203.715 40.9307 203.614 41.0967C203.513 41.2627 203.378 41.4222 203.209 41.5752C203.043 41.7249 202.844 41.8503 202.613 41.9512C202.385 42.0488 202.128 42.0977 201.842 42.0977C201.484 42.0977 201.17 42.0277 200.899 41.8877C200.632 41.7477 200.424 41.5605 200.274 41.3262C200.128 41.0885 200.055 40.8232 200.055 40.5303C200.055 40.2471 200.11 39.998 200.221 39.7832C200.331 39.5651 200.491 39.3844 200.699 39.2412C200.908 39.0947 201.158 38.984 201.451 38.9092C201.744 38.8343 202.071 38.7969 202.433 38.7969H203.482ZM208.554 37.7324V44.0312H207.646V36.7168H208.476L208.554 37.7324ZM212.113 39.3145V39.417C212.113 39.8011 212.068 40.1576 211.977 40.4863C211.885 40.8118 211.752 41.0951 211.576 41.3359C211.404 41.5768 211.19 41.764 210.937 41.8975C210.683 42.0309 210.391 42.0977 210.062 42.0977C209.727 42.0977 209.431 42.0423 209.174 41.9316C208.917 41.821 208.699 41.6598 208.52 41.4482C208.34 41.2367 208.197 40.9827 208.09 40.6865C207.986 40.3903 207.914 40.0566 207.875 39.6855V39.1387C207.914 38.748 207.987 38.3981 208.095 38.0889C208.202 37.7796 208.344 37.516 208.52 37.2979C208.699 37.0765 208.915 36.9089 209.169 36.7949C209.423 36.6777 209.716 36.6191 210.048 36.6191C210.38 36.6191 210.674 36.6842 210.932 36.8145C211.189 36.9414 211.405 37.1237 211.581 37.3613C211.757 37.599 211.889 37.8838 211.977 38.2158C212.068 38.5446 212.113 38.9108 212.113 39.3145ZM211.205 39.417V39.3145C211.205 39.0508 211.177 38.8034 211.122 38.5723C211.067 38.3379 210.98 38.1328 210.863 37.957C210.749 37.778 210.603 37.638 210.424 37.5371C210.245 37.4329 210.032 37.3809 209.784 37.3809C209.556 37.3809 209.358 37.4199 209.188 37.498C209.022 37.5762 208.881 37.682 208.764 37.8154C208.646 37.9456 208.55 38.0954 208.476 38.2646C208.404 38.4307 208.35 38.6032 208.314 38.7822V40.0469C208.38 40.2747 208.471 40.4896 208.588 40.6914C208.705 40.89 208.861 41.0511 209.057 41.1748C209.252 41.2952 209.498 41.3555 209.794 41.3555C210.038 41.3555 210.248 41.305 210.424 41.2041C210.603 41.0999 210.749 40.9583 210.863 40.7793C210.98 40.6003 211.067 40.3952 211.122 40.1641C211.177 39.9297 211.205 39.6807 211.205 39.417ZM217.458 42.0977C217.09 42.0977 216.757 42.0358 216.457 41.9121C216.161 41.7852 215.905 41.6077 215.69 41.3799C215.479 41.152 215.316 40.8818 215.202 40.5693C215.088 40.2568 215.031 39.915 215.031 39.5439V39.3389C215.031 38.9092 215.095 38.5267 215.222 38.1914C215.349 37.8529 215.521 37.5664 215.739 37.332C215.957 37.0977 216.205 36.9202 216.481 36.7998C216.758 36.6794 217.045 36.6191 217.341 36.6191C217.718 36.6191 218.044 36.6842 218.317 36.8145C218.594 36.9447 218.82 37.127 218.996 37.3613C219.172 37.5924 219.302 37.8659 219.387 38.1816C219.471 38.4941 219.514 38.8359 219.514 39.207V39.6123H215.568V38.875H218.61V38.8066C218.597 38.5723 218.549 38.3444 218.464 38.123C218.382 37.9017 218.252 37.7194 218.073 37.5762C217.894 37.4329 217.65 37.3613 217.341 37.3613C217.136 37.3613 216.947 37.4053 216.774 37.4932C216.602 37.5778 216.454 37.7048 216.33 37.874C216.206 38.0433 216.11 38.25 216.042 38.4941C215.974 38.7383 215.939 39.0199 215.939 39.3389V39.5439C215.939 39.7946 215.974 40.0306 216.042 40.252C216.114 40.4701 216.216 40.6621 216.35 40.8281C216.486 40.9941 216.651 41.1243 216.843 41.2188C217.038 41.3132 217.259 41.3604 217.507 41.3604C217.826 41.3604 218.096 41.2952 218.317 41.165C218.539 41.0348 218.732 40.8607 218.898 40.6426L219.445 41.0771C219.331 41.2497 219.187 41.4141 219.011 41.5703C218.835 41.7266 218.618 41.8535 218.361 41.9512C218.107 42.0488 217.806 42.0977 217.458 42.0977Z" fill="white"/>
<path d="M262.5 28.75C267.885 28.75 272.25 24.3848 272.25 19C272.25 13.6152 267.885 9.25 262.5 9.25C257.115 9.25 252.75 13.6152 252.75 19C252.75 24.3848 257.115 28.75 262.5 28.75Z" stroke="white" stroke-width="3" stroke-linecap="round" stroke-linejoin="round"/>
<path d="M262.5 24.2812C265.417 24.2812 267.781 21.9168 267.781 19C267.781 16.0832 265.417 13.7188 262.5 13.7188C259.583 13.7188 257.219 16.0832 257.219 19C257.219 21.9168 259.583 24.2812 262.5 24.2812Z" stroke="white" stroke-width="3" stroke-linecap="round" stroke-linejoin="round"/>
<path d="M241.705 39.6855H242.926C242.887 40.151 242.757 40.5661 242.535 40.9307C242.314 41.292 242.003 41.5768 241.603 41.7852C241.202 41.9935 240.715 42.0977 240.143 42.0977C239.703 42.0977 239.308 42.0195 238.956 41.8633C238.604 41.7038 238.303 41.4792 238.053 41.1895C237.802 40.8965 237.61 40.5433 237.477 40.1299C237.346 39.7165 237.281 39.2542 237.281 38.7432V38.1523C237.281 37.6413 237.348 37.179 237.481 36.7656C237.618 36.3522 237.813 35.999 238.067 35.7061C238.321 35.4098 238.626 35.1836 238.98 35.0273C239.339 34.8711 239.741 34.793 240.187 34.793C240.753 34.793 241.231 34.8971 241.622 35.1055C242.013 35.3138 242.315 35.6019 242.53 35.9697C242.748 36.3376 242.882 36.7591 242.931 37.2344H241.71C241.677 36.9284 241.606 36.6663 241.495 36.4482C241.388 36.2301 241.228 36.0641 241.017 35.9502C240.805 35.833 240.528 35.7744 240.187 35.7744C239.907 35.7744 239.662 35.8265 239.454 35.9307C239.246 36.0348 239.072 36.1878 238.932 36.3896C238.792 36.5915 238.686 36.8405 238.614 37.1367C238.546 37.4297 238.512 37.765 238.512 38.1426V38.7432C238.512 39.1012 238.543 39.4268 238.604 39.7197C238.67 40.0094 238.767 40.2585 238.897 40.4668C239.031 40.6751 239.2 40.8363 239.405 40.9502C239.61 41.0641 239.856 41.1211 240.143 41.1211C240.491 41.1211 240.772 41.0658 240.987 40.9551C241.205 40.8444 241.37 40.6833 241.48 40.4717C241.594 40.2568 241.669 39.9948 241.705 39.6855ZM248.373 36.7168V42H247.191V36.7168H248.373ZM250.106 36.7168V37.6445H245.487V36.7168H250.106ZM254.074 37.7324V44.0312H252.897V36.7168H253.981L254.074 37.7324ZM257.517 39.3096V39.4121C257.517 39.7962 257.471 40.1527 257.38 40.4814C257.292 40.807 257.16 41.0918 256.984 41.3359C256.812 41.5768 256.599 41.764 256.345 41.8975C256.091 42.0309 255.798 42.0977 255.466 42.0977C255.137 42.0977 254.849 42.0374 254.602 41.917C254.357 41.7933 254.151 41.6191 253.981 41.3945C253.812 41.1699 253.675 40.9062 253.571 40.6035C253.47 40.2975 253.399 39.9622 253.356 39.5977V39.2021C253.399 38.8148 253.47 38.4632 253.571 38.1475C253.675 37.8317 253.812 37.5599 253.981 37.332C254.151 37.1042 254.357 36.9284 254.602 36.8047C254.846 36.681 255.131 36.6191 255.456 36.6191C255.788 36.6191 256.083 36.6842 256.34 36.8145C256.597 36.9414 256.813 37.1237 256.989 37.3613C257.165 37.5957 257.297 37.8789 257.385 38.2109C257.473 38.5397 257.517 38.9059 257.517 39.3096ZM256.34 39.4121V39.3096C256.34 39.0654 256.317 38.8392 256.271 38.6309C256.226 38.4193 256.154 38.2337 256.057 38.0742C255.959 37.9147 255.834 37.791 255.681 37.7031C255.531 37.612 255.35 37.5664 255.139 37.5664C254.93 37.5664 254.751 37.6022 254.602 37.6738C254.452 37.7422 254.326 37.8382 254.226 37.9619C254.125 38.0856 254.047 38.2305 253.991 38.3965C253.936 38.5592 253.897 38.7367 253.874 38.9287V39.876C253.913 40.1104 253.98 40.3252 254.074 40.5205C254.169 40.7158 254.302 40.8721 254.475 40.9893C254.65 41.1032 254.875 41.1602 255.148 41.1602C255.36 41.1602 255.541 41.1146 255.69 41.0234C255.84 40.9323 255.962 40.807 256.057 40.6475C256.154 40.4847 256.226 40.2975 256.271 40.0859C256.317 39.8743 256.34 39.6497 256.34 39.4121ZM260.293 39.417V39.3047C260.293 38.9238 260.348 38.5706 260.459 38.2451C260.57 37.9163 260.729 37.6315 260.938 37.3906C261.149 37.1465 261.406 36.9577 261.709 36.8242C262.015 36.6875 262.36 36.6191 262.744 36.6191C263.132 36.6191 263.477 36.6875 263.779 36.8242C264.085 36.9577 264.344 37.1465 264.556 37.3906C264.767 37.6315 264.928 37.9163 265.039 38.2451C265.15 38.5706 265.205 38.9238 265.205 39.3047V39.417C265.205 39.7979 265.15 40.151 265.039 40.4766C264.928 40.8021 264.767 41.0869 264.556 41.3311C264.344 41.5719 264.087 41.7607 263.784 41.8975C263.481 42.0309 263.138 42.0977 262.754 42.0977C262.367 42.0977 262.02 42.0309 261.714 41.8975C261.411 41.7607 261.154 41.5719 260.942 41.3311C260.731 41.0869 260.57 40.8021 260.459 40.4766C260.348 40.151 260.293 39.7979 260.293 39.417ZM261.47 39.3047V39.417C261.47 39.6546 261.494 39.8792 261.543 40.0908C261.592 40.3024 261.668 40.488 261.772 40.6475C261.877 40.807 262.01 40.9323 262.173 41.0234C262.336 41.1146 262.529 41.1602 262.754 41.1602C262.972 41.1602 263.161 41.1146 263.32 41.0234C263.483 40.9323 263.617 40.807 263.721 40.6475C263.825 40.488 263.901 40.3024 263.95 40.0908C264.002 39.8792 264.028 39.6546 264.028 39.417V39.3047C264.028 39.0703 264.002 38.849 263.95 38.6406C263.901 38.429 263.823 38.2419 263.716 38.0791C263.612 37.9163 263.478 37.7894 263.315 37.6982C263.156 37.6038 262.965 37.5566 262.744 37.5566C262.523 37.5566 262.331 37.6038 262.168 37.6982C262.008 37.7894 261.877 37.9163 261.772 38.0791C261.668 38.2419 261.592 38.429 261.543 38.6406C261.494 38.849 261.47 39.0703 261.47 39.3047ZM269.407 40.2812L271.482 36.7168H272.659V42H271.482V38.4307L269.407 42H268.23V36.7168H269.407V40.2812ZM271.17 34.6855H272.044C272.044 34.9557 271.979 35.195 271.849 35.4033C271.722 35.6084 271.539 35.7695 271.302 35.8867C271.067 36.0039 270.787 36.0625 270.462 36.0625C269.97 36.0625 269.581 35.9355 269.295 35.6816C269.012 35.4245 268.87 35.0924 268.87 34.6855H269.744C269.744 34.8678 269.798 35.029 269.905 35.1689C270.016 35.3057 270.201 35.374 270.462 35.374C270.719 35.374 270.901 35.3057 271.009 35.1689C271.116 35.029 271.17 34.8678 271.17 34.6855ZM277.174 36.7168V42H275.997V36.7168H277.174ZM280.621 36.7168L278.243 39.8955H276.9L276.744 38.8311H277.726L279.151 36.7168H280.621ZM279.244 42L277.652 39.6953L278.58 39.0264L280.792 42H279.244ZM286.41 40.9404V38.4209C286.41 38.2321 286.376 38.0693 286.308 37.9326C286.239 37.7959 286.135 37.6901 285.995 37.6152C285.858 37.5404 285.686 37.5029 285.478 37.5029C285.285 37.5029 285.119 37.5355 284.979 37.6006C284.84 37.6657 284.73 37.7536 284.652 37.8643C284.574 37.9749 284.535 38.1003 284.535 38.2402H283.363C283.363 38.0319 283.414 37.8301 283.515 37.6348C283.616 37.4395 283.762 37.2653 283.954 37.1123C284.146 36.9593 284.376 36.8389 284.643 36.751C284.91 36.6631 285.209 36.6191 285.541 36.6191C285.938 36.6191 286.29 36.6859 286.596 36.8193C286.905 36.9528 287.147 37.1546 287.323 37.4248C287.502 37.6917 287.592 38.027 287.592 38.4307V40.7793C287.592 41.0202 287.608 41.2367 287.641 41.4287C287.676 41.6175 287.727 41.7819 287.792 41.9219V42H286.586C286.531 41.873 286.487 41.7119 286.454 41.5166C286.425 41.318 286.41 41.126 286.41 40.9404ZM286.581 38.7871L286.591 39.5146H285.746C285.528 39.5146 285.336 39.5358 285.17 39.5781C285.004 39.6172 284.866 39.6758 284.755 39.7539C284.644 39.832 284.561 39.9264 284.506 40.0371C284.451 40.1478 284.423 40.2731 284.423 40.4131C284.423 40.5531 284.455 40.6816 284.521 40.7988C284.586 40.9128 284.68 41.0023 284.804 41.0674C284.931 41.1325 285.084 41.165 285.263 41.165C285.504 41.165 285.714 41.1162 285.893 41.0186C286.075 40.9176 286.218 40.7956 286.322 40.6523C286.426 40.5059 286.482 40.3675 286.488 40.2373L286.869 40.7598C286.83 40.8932 286.763 41.0365 286.669 41.1895C286.575 41.3424 286.451 41.4889 286.298 41.6289C286.148 41.7656 285.967 41.8779 285.756 41.9658C285.548 42.0537 285.307 42.0977 285.033 42.0977C284.688 42.0977 284.381 42.0293 284.11 41.8926C283.84 41.7526 283.629 41.5654 283.476 41.3311C283.323 41.0934 283.246 40.8249 283.246 40.5254C283.246 40.2454 283.298 39.998 283.402 39.7832C283.51 39.5651 283.666 39.3828 283.871 39.2363C284.079 39.0898 284.333 38.9792 284.633 38.9043C284.932 38.8262 285.274 38.7871 285.658 38.7871H286.581Z" fill="white"/>
<path d="M112.5 14.9375C112.5 14.0755 112.842 13.2489 113.452 12.6394C114.061 12.0299 114.888 11.6875 115.75 11.6875H122.25C122.465 11.6875 122.672 11.7731 122.825 11.9255C122.977 12.0778 123.062 12.2845 123.062 12.5V25.5C123.062 25.7155 122.977 25.9222 122.825 26.0745C122.672 26.2269 122.465 26.3125 122.25 26.3125H115.75C114.888 26.3125 114.061 26.6549 113.452 27.2644C112.842 27.8739 112.5 28.7005 112.5 29.5625" stroke="white" stroke-width="3" stroke-linecap="round" stroke-linejoin="round"/>
<path d="M101.938 25.5C101.938 25.7155 102.023 25.9222 102.175 26.0745C102.328 26.2269 102.535 26.3125 102.75 26.3125H109.25C110.112 26.3125 110.939 26.6549 111.548 27.2644C112.158 27.8739 112.5 28.7005 112.5 29.5625V14.9375C112.5 14.0755 112.158 13.2489 111.548 12.6394C110.939 12.0299 110.112 11.6875 109.25 11.6875H102.75C102.535 11.6875 102.328 11.7731 102.175 11.9255C102.023 12.0778 101.938 12.2845 101.938 12.5V25.5Z" stroke="white" stroke-width="3" stroke-linecap="round" stroke-linejoin="round"/>
<path d="M89.6494 34.8906V42H88.4287V34.8906H89.6494ZM93.9268 34.8906L91.0361 38.9434H89.3027L89.1367 37.8789H90.3574L92.4277 34.8906H93.9268ZM92.6768 42L90.377 38.7578L91.168 37.8154L94.1465 42H92.6768ZM99.7109 40.9404V38.4209C99.7109 38.2321 99.6768 38.0693 99.6084 37.9326C99.54 37.7959 99.4359 37.6901 99.2959 37.6152C99.1592 37.5404 98.9867 37.5029 98.7783 37.5029C98.5863 37.5029 98.4202 37.5355 98.2803 37.6006C98.1403 37.6657 98.0312 37.7536 97.9531 37.8643C97.875 37.9749 97.8359 38.1003 97.8359 38.2402H96.6641C96.6641 38.0319 96.7145 37.8301 96.8154 37.6348C96.9163 37.4395 97.0628 37.2653 97.2549 37.1123C97.4469 36.9593 97.6764 36.8389 97.9434 36.751C98.2103 36.6631 98.5098 36.6191 98.8418 36.6191C99.2389 36.6191 99.5905 36.6859 99.8965 36.8193C100.206 36.9528 100.448 37.1546 100.624 37.4248C100.803 37.6917 100.893 38.027 100.893 38.4307V40.7793C100.893 41.0202 100.909 41.2367 100.941 41.4287C100.977 41.6175 101.028 41.7819 101.093 41.9219V42H99.8867C99.8314 41.873 99.7874 41.7119 99.7549 41.5166C99.7256 41.318 99.7109 41.126 99.7109 40.9404ZM99.8818 38.7871L99.8916 39.5146H99.0469C98.8288 39.5146 98.6367 39.5358 98.4707 39.5781C98.3047 39.6172 98.1663 39.6758 98.0557 39.7539C97.945 39.832 97.862 39.9264 97.8066 40.0371C97.7513 40.1478 97.7236 40.2731 97.7236 40.4131C97.7236 40.5531 97.7562 40.6816 97.8213 40.7988C97.8864 40.9128 97.9808 41.0023 98.1045 41.0674C98.2314 41.1325 98.3844 41.165 98.5635 41.165C98.8044 41.165 99.0143 41.1162 99.1934 41.0186C99.3757 40.9176 99.5189 40.7956 99.623 40.6523C99.7272 40.5059 99.7826 40.3675 99.7891 40.2373L100.17 40.7598C100.131 40.8932 100.064 41.0365 99.9697 41.1895C99.8753 41.3424 99.7516 41.4889 99.5986 41.6289C99.4489 41.7656 99.2682 41.8779 99.0566 41.9658C98.8483 42.0537 98.6074 42.0977 98.334 42.0977C97.9889 42.0977 97.6813 42.0293 97.4111 41.8926C97.141 41.7526 96.9294 41.5654 96.7764 41.3311C96.6234 41.0934 96.5469 40.8249 96.5469 40.5254C96.5469 40.2454 96.599 39.998 96.7031 39.7832C96.8105 39.5651 96.9668 39.3828 97.1719 39.2363C97.3802 39.0898 97.6341 38.9792 97.9336 38.9043C98.2331 38.8262 98.5749 38.7871 98.959 38.7871H99.8818ZM106.496 36.7168V42H105.314V36.7168H106.496ZM108.229 36.7168V37.6445H103.61V36.7168H108.229ZM113.916 40.9404V38.4209C113.916 38.2321 113.882 38.0693 113.813 37.9326C113.745 37.7959 113.641 37.6901 113.501 37.6152C113.364 37.5404 113.192 37.5029 112.983 37.5029C112.791 37.5029 112.625 37.5355 112.485 37.6006C112.345 37.6657 112.236 37.7536 112.158 37.8643C112.08 37.9749 112.041 38.1003 112.041 38.2402H110.869C110.869 38.0319 110.92 37.8301 111.021 37.6348C111.121 37.4395 111.268 37.2653 111.46 37.1123C111.652 36.9593 111.882 36.8389 112.148 36.751C112.415 36.6631 112.715 36.6191 113.047 36.6191C113.444 36.6191 113.796 36.6859 114.102 36.8193C114.411 36.9528 114.653 37.1546 114.829 37.4248C115.008 37.6917 115.098 38.027 115.098 38.4307V40.7793C115.098 41.0202 115.114 41.2367 115.146 41.4287C115.182 41.6175 115.233 41.7819 115.298 41.9219V42H114.092C114.036 41.873 113.993 41.7119 113.96 41.5166C113.931 41.318 113.916 41.126 113.916 40.9404ZM114.087 38.7871L114.097 39.5146H113.252C113.034 39.5146 112.842 39.5358 112.676 39.5781C112.51 39.6172 112.371 39.6758 112.261 39.7539C112.15 39.832 112.067 39.9264 112.012 40.0371C111.956 40.1478 111.929 40.2731 111.929 40.4131C111.929 40.5531 111.961 40.6816 112.026 40.7988C112.091 40.9128 112.186 41.0023 112.31 41.0674C112.437 41.1325 112.59 41.165 112.769 41.165C113.009 41.165 113.219 41.1162 113.398 41.0186C113.581 40.9176 113.724 40.7956 113.828 40.6523C113.932 40.5059 113.988 40.3675 113.994 40.2373L114.375 40.7598C114.336 40.8932 114.269 41.0365 114.175 41.1895C114.08 41.3424 113.957 41.4889 113.804 41.6289C113.654 41.7656 113.473 41.8779 113.262 41.9658C113.053 42.0537 112.812 42.0977 112.539 42.0977C112.194 42.0977 111.886 42.0293 111.616 41.8926C111.346 41.7526 111.134 41.5654 110.981 41.3311C110.828 41.0934 110.752 40.8249 110.752 40.5254C110.752 40.2454 110.804 39.998 110.908 39.7832C111.016 39.5651 111.172 39.3828 111.377 39.2363C111.585 39.0898 111.839 38.9792 112.139 38.9043C112.438 38.8262 112.78 38.7871 113.164 38.7871H114.087ZM121.878 36.7168V37.6543H119.3V36.7168H121.878ZM122.801 36.7168V42H121.624V36.7168H122.801ZM119.012 36.7168H120.174L120.032 39.3291C120.013 39.7165 119.974 40.0583 119.915 40.3545C119.86 40.6475 119.785 40.8997 119.69 41.1113C119.596 41.3197 119.48 41.4889 119.344 41.6191C119.207 41.7493 119.048 41.8454 118.865 41.9072C118.683 41.9691 118.478 42 118.25 42H117.884L117.879 41.0332L118.064 41.0186C118.185 41.0088 118.289 40.9779 118.377 40.9258C118.465 40.8704 118.54 40.7923 118.602 40.6914C118.667 40.5905 118.719 40.4603 118.758 40.3008C118.8 40.1413 118.833 39.9525 118.855 39.7344C118.882 39.5163 118.901 39.2624 118.914 38.9727L119.012 36.7168ZM125.826 39.417V39.3047C125.826 38.9238 125.882 38.5706 125.992 38.2451C126.103 37.9163 126.262 37.6315 126.471 37.3906C126.682 37.1465 126.939 36.9577 127.242 36.8242C127.548 36.6875 127.893 36.6191 128.277 36.6191C128.665 36.6191 129.01 36.6875 129.312 36.8242C129.618 36.9577 129.877 37.1465 130.089 37.3906C130.3 37.6315 130.462 37.9163 130.572 38.2451C130.683 38.5706 130.738 38.9238 130.738 39.3047V39.417C130.738 39.7979 130.683 40.151 130.572 40.4766C130.462 40.8021 130.3 41.0869 130.089 41.3311C129.877 41.5719 129.62 41.7607 129.317 41.8975C129.015 42.0309 128.671 42.0977 128.287 42.0977C127.9 42.0977 127.553 42.0309 127.247 41.8975C126.944 41.7607 126.687 41.5719 126.476 41.3311C126.264 41.0869 126.103 40.8021 125.992 40.4766C125.882 40.151 125.826 39.7979 125.826 39.417ZM127.003 39.3047V39.417C127.003 39.6546 127.027 39.8792 127.076 40.0908C127.125 40.3024 127.201 40.488 127.306 40.6475C127.41 40.807 127.543 40.9323 127.706 41.0234C127.869 41.1146 128.062 41.1602 128.287 41.1602C128.505 41.1602 128.694 41.1146 128.854 41.0234C129.016 40.9323 129.15 40.807 129.254 40.6475C129.358 40.488 129.435 40.3024 129.483 40.0908C129.535 39.8792 129.562 39.6546 129.562 39.417V39.3047C129.562 39.0703 129.535 38.849 129.483 38.6406C129.435 38.429 129.356 38.2419 129.249 38.0791C129.145 37.9163 129.011 37.7894 128.849 37.6982C128.689 37.6038 128.499 37.5566 128.277 37.5566C128.056 37.5566 127.864 37.6038 127.701 37.6982C127.542 37.7894 127.41 37.9163 127.306 38.0791C127.201 38.2419 127.125 38.429 127.076 38.6406C127.027 38.849 127.003 39.0703 127.003 39.3047ZM137.24 36.7168V37.6543H134.936V42H133.759V36.7168H137.24Z" fill="white"/>
<g clip-path="url(#clip1_7949_3935)">
<path d="M337.5 22.25C341.09 22.25 344 19.3399 344 15.75C344 12.1601 341.09 9.25 337.5 9.25C333.91 9.25 331 12.1601 331 15.75C331 19.3399 333.91 22.25 337.5 22.25Z" stroke="white" stroke-width="3" stroke-linecap="round" stroke-linejoin="round"/>
<path d="M327.648 27.9374C328.647 26.208 330.083 24.7718 331.812 23.7732C333.541 22.7747 335.503 22.249 337.5 22.249C339.497 22.249 341.459 22.7747 343.188 23.7732C344.917 24.7718 346.353 26.208 347.352 27.9374" stroke="white" stroke-width="3" stroke-linecap="round" stroke-linejoin="round"/>
<g filter="url(#filter0_d_7949_3935)">
<path d="M316.529 34.8906V42H315.309V35.8672H312.149V42H310.929V34.8906H316.529ZM321.068 37.7324V44.0312H319.892V36.7168H320.976L321.068 37.7324ZM324.511 39.3096V39.4121C324.511 39.7962 324.465 40.1527 324.374 40.4814C324.286 40.807 324.154 41.0918 323.979 41.3359C323.806 41.5768 323.593 41.764 323.339 41.8975C323.085 42.0309 322.792 42.0977 322.46 42.0977C322.131 42.0977 321.843 42.0374 321.596 41.917C321.352 41.7933 321.145 41.6191 320.976 41.3945C320.806 41.1699 320.67 40.9062 320.565 40.6035C320.465 40.2975 320.393 39.9622 320.351 39.5977V39.2021C320.393 38.8148 320.465 38.4632 320.565 38.1475C320.67 37.8317 320.806 37.5599 320.976 37.332C321.145 37.1042 321.352 36.9284 321.596 36.8047C321.84 36.681 322.125 36.6191 322.45 36.6191C322.782 36.6191 323.077 36.6842 323.334 36.8145C323.591 36.9414 323.808 37.1237 323.983 37.3613C324.159 37.5957 324.291 37.8789 324.379 38.2109C324.467 38.5397 324.511 38.9059 324.511 39.3096ZM323.334 39.4121V39.3096C323.334 39.0654 323.311 38.8392 323.266 38.6309C323.22 38.4193 323.148 38.2337 323.051 38.0742C322.953 37.9147 322.828 37.791 322.675 37.7031C322.525 37.612 322.344 37.5664 322.133 37.5664C321.924 37.5664 321.745 37.6022 321.596 37.6738C321.446 37.7422 321.321 37.8382 321.22 37.9619C321.119 38.0856 321.041 38.2305 320.985 38.3965C320.93 38.5592 320.891 38.7367 320.868 38.9287V39.876C320.907 40.1104 320.974 40.3252 321.068 40.5205C321.163 40.7158 321.296 40.8721 321.469 40.9893C321.645 41.1032 321.869 41.1602 322.143 41.1602C322.354 41.1602 322.535 41.1146 322.685 41.0234C322.834 40.9323 322.956 40.807 323.051 40.6475C323.148 40.4847 323.22 40.2975 323.266 40.0859C323.311 39.8743 323.334 39.6497 323.334 39.4121ZM327.287 39.417V39.3047C327.287 38.9238 327.342 38.5706 327.453 38.2451C327.564 37.9163 327.723 37.6315 327.932 37.3906C328.143 37.1465 328.4 36.9577 328.703 36.8242C329.009 36.6875 329.354 36.6191 329.738 36.6191C330.126 36.6191 330.471 36.6875 330.773 36.8242C331.079 36.9577 331.338 37.1465 331.55 37.3906C331.761 37.6315 331.923 37.9163 332.033 38.2451C332.144 38.5706 332.199 38.9238 332.199 39.3047V39.417C332.199 39.7979 332.144 40.151 332.033 40.4766C331.923 40.8021 331.761 41.0869 331.55 41.3311C331.338 41.5719 331.081 41.7607 330.778 41.8975C330.476 42.0309 330.132 42.0977 329.748 42.0977C329.361 42.0977 329.014 42.0309 328.708 41.8975C328.405 41.7607 328.148 41.5719 327.937 41.3311C327.725 41.0869 327.564 40.8021 327.453 40.4766C327.342 40.151 327.287 39.7979 327.287 39.417ZM328.464 39.3047V39.417C328.464 39.6546 328.488 39.8792 328.537 40.0908C328.586 40.3024 328.662 40.488 328.767 40.6475C328.871 40.807 329.004 40.9323 329.167 41.0234C329.33 41.1146 329.523 41.1602 329.748 41.1602C329.966 41.1602 330.155 41.1146 330.314 41.0234C330.477 40.9323 330.611 40.807 330.715 40.6475C330.819 40.488 330.896 40.3024 330.944 40.0908C330.996 39.8792 331.022 39.6546 331.022 39.417V39.3047C331.022 39.0703 330.996 38.849 330.944 38.6406C330.896 38.429 330.817 38.2419 330.71 38.0791C330.606 37.9163 330.472 37.7894 330.31 37.6982C330.15 37.6038 329.96 37.5566 329.738 37.5566C329.517 37.5566 329.325 37.6038 329.162 37.6982C329.003 37.7894 328.871 37.9163 328.767 38.0791C328.662 38.2419 328.586 38.429 328.537 38.6406C328.488 38.849 328.464 39.0703 328.464 39.3047ZM341.46 39.4219V39.5244C341.46 39.8988 341.418 40.2438 341.333 40.5596C341.252 40.8721 341.13 41.1439 340.967 41.375C340.804 41.6061 340.602 41.7852 340.361 41.9121C340.124 42.0391 339.847 42.1025 339.531 42.1025C339.255 42.1025 339.014 42.0553 338.809 41.9609C338.604 41.8665 338.431 41.7347 338.291 41.5654C338.151 41.3929 338.039 41.1911 337.954 40.96C337.869 40.7256 337.808 40.4684 337.769 40.1885V38.6602C337.808 38.3607 337.868 38.0872 337.949 37.8398C338.034 37.5892 338.146 37.3727 338.286 37.1904C338.429 37.0081 338.602 36.8682 338.804 36.7705C339.006 36.6696 339.245 36.6191 339.521 36.6191C339.775 36.6191 340.005 36.6647 340.21 36.7559C340.415 36.8438 340.596 36.9707 340.752 37.1367C340.908 37.2995 341.038 37.4964 341.143 37.7275C341.247 37.9554 341.325 38.2126 341.377 38.499C341.432 38.7855 341.46 39.0931 341.46 39.4219ZM340.283 39.5244V39.4219C340.283 39.2168 340.27 39.0215 340.244 38.8359C340.218 38.6504 340.177 38.4811 340.122 38.3281C340.07 38.1719 340.002 38.0368 339.917 37.9229C339.832 37.8057 339.73 37.7161 339.609 37.6543C339.492 37.5892 339.355 37.5566 339.199 37.5566C338.988 37.5566 338.812 37.5924 338.672 37.6641C338.535 37.7324 338.431 37.8301 338.359 37.957C338.291 38.0807 338.247 38.224 338.228 38.3867V40.4668C338.25 40.6035 338.298 40.724 338.369 40.8281C338.444 40.9323 338.55 41.0153 338.687 41.0771C338.823 41.1357 338.997 41.165 339.209 41.165C339.404 41.165 339.569 41.1243 339.702 41.043C339.839 40.9583 339.95 40.8411 340.034 40.6914C340.122 40.5417 340.186 40.3675 340.225 40.1689C340.264 39.9704 340.283 39.7555 340.283 39.5244ZM334.985 39.5244V39.4219C334.985 39.0931 335.011 38.7855 335.063 38.499C335.116 38.2126 335.194 37.9554 335.298 37.7275C335.405 37.4964 335.537 37.2995 335.693 37.1367C335.85 36.9707 336.03 36.8438 336.235 36.7559C336.44 36.6647 336.67 36.6191 336.924 36.6191C337.197 36.6191 337.433 36.6696 337.632 36.7705C337.83 36.8682 337.998 37.0081 338.135 37.1904C338.275 37.3727 338.385 37.5892 338.467 37.8398C338.551 38.0872 338.613 38.3607 338.652 38.6602V40.1299C338.617 40.4163 338.556 40.68 338.472 40.9209C338.387 41.1618 338.276 41.3701 338.14 41.5459C338.003 41.7217 337.834 41.8584 337.632 41.9561C337.43 42.0537 337.191 42.1025 336.914 42.1025C336.602 42.1025 336.325 42.0391 336.084 41.9121C335.843 41.7852 335.641 41.6061 335.479 41.375C335.316 41.1439 335.192 40.8721 335.107 40.5596C335.026 40.2438 334.985 39.8988 334.985 39.5244ZM336.162 39.4219V39.5244C336.162 39.7555 336.18 39.9704 336.216 40.1689C336.255 40.3675 336.315 40.5417 336.396 40.6914C336.478 40.8379 336.585 40.9535 336.719 41.0381C336.852 41.1227 337.017 41.165 337.212 41.165C337.427 41.165 337.603 41.1325 337.739 41.0674C337.876 41.0023 337.98 40.9128 338.052 40.7988C338.127 40.6849 338.175 40.5547 338.198 40.4082V38.3867C338.179 38.224 338.133 38.0807 338.062 37.957C337.99 37.8301 337.886 37.7324 337.749 37.6641C337.612 37.5924 337.437 37.5566 337.222 37.5566C337.026 37.5566 336.86 37.6055 336.724 37.7031C336.59 37.8008 336.481 37.9359 336.396 38.1084C336.315 38.2777 336.255 38.4762 336.216 38.7041C336.18 38.9287 336.162 39.168 336.162 39.4219ZM337.607 44.0312V34.5H338.789V44.0312H337.607ZM345.687 40.2812L347.762 36.7168H348.938V42H347.762V38.4307L345.687 42H344.51V36.7168H345.687V40.2812ZM355.733 36.7168V37.6543H353.155V36.7168H355.733ZM356.656 36.7168V42H355.479V36.7168H356.656ZM352.867 36.7168H354.029L353.888 39.3291C353.868 39.7165 353.829 40.0583 353.771 40.3545C353.715 40.6475 353.64 40.8997 353.546 41.1113C353.451 41.3197 353.336 41.4889 353.199 41.6191C353.062 41.7493 352.903 41.8454 352.721 41.9072C352.538 41.9691 352.333 42 352.105 42H351.739L351.734 41.0332L351.92 41.0186C352.04 41.0088 352.145 40.9779 352.232 40.9258C352.32 40.8704 352.395 40.7923 352.457 40.6914C352.522 40.5905 352.574 40.4603 352.613 40.3008C352.656 40.1413 352.688 39.9525 352.711 39.7344C352.737 39.5163 352.757 39.2624 352.77 38.9727L352.867 36.7168ZM360.78 38.3965H362.338C362.794 38.3965 363.181 38.473 363.5 38.626C363.819 38.779 364.062 38.9922 364.228 39.2656C364.397 39.5358 364.481 39.8451 364.481 40.1934C364.481 40.4505 364.434 40.6898 364.34 40.9111C364.245 41.1292 364.105 41.3197 363.92 41.4824C363.738 41.6452 363.513 41.7721 363.246 41.8633C362.982 41.9544 362.68 42 362.338 42H359.999V36.7168H361.181V41.0674H362.338C362.572 41.0674 362.759 41.0267 362.899 40.9453C363.039 40.8639 363.14 40.7581 363.202 40.6279C363.267 40.4977 363.3 40.3594 363.3 40.2129C363.3 40.0632 363.267 39.9215 363.202 39.7881C363.14 39.6546 363.039 39.5456 362.899 39.4609C362.759 39.3763 362.572 39.334 362.338 39.334H360.78V38.3965Z" fill="white"/>
</g>
</g>
</g>
<defs>
<filter id="filter0_d_7949_3935" x="306.93" y="34.5" width="61.5508" height="17.5312" filterUnits="userSpaceOnUse" color-interpolation-filters="sRGB">
<feFlood flood-opacity="0" result="BackgroundImageFix"/>
<feColorMatrix in="SourceAlpha" type="matrix" values="0 0 0 0 0 0 0 0 0 0 0 0 0 0 0 0 0 0 127 0" result="hardAlpha"/>
<feOffset dy="4"/>
<feGaussianBlur stdDeviation="2"/>
<feComposite in2="hardAlpha" operator="out"/>
<feColorMatrix type="matrix" values="0 0 0 0 0 0 0 0 0 0 0 0 0 0 0 0 0 0 0.25 0"/>
<feBlend mode="normal" in2="BackgroundImageFix" result="effect1_dropShadow_7949_3935"/>
<feBlend mode="normal" in="SourceGraphic" in2="effect1_dropShadow_7949_3935" result="shape"/>
</filter>
<clipPath id="clip0_7949_3935">
<path d="M0 10C0 4.47715 4.47715 0 10 0H359C364.523 0 369 4.47715 369 10V42C369 47.5228 364.523 52 359 52H10C4.47715 52 0 47.5228 0 42V10Z" fill="white"/>
</clipPath>
<clipPath id="clip1_7949_3935">
<rect width="75" height="51" fill="white" transform="translate(300)"/>
</clipPath>
</defs>
</svg>
