<svg width="48" height="42" viewBox="0 0 48 42" fill="none" xmlns="http://www.w3.org/2000/svg">
<g filter="url(#filter0_dd_6416_3349)">
<rect width="16" height="16" transform="matrix(-1 0 0 1 46 1)" />
<path d="M39.5716 8.62343L29.4998 35.7379C29.0701 36.907 27.2826 36.875 26.8873 35.6898L22.831 23.4219C22.7698 23.2213 22.6536 23.0391 22.4939 22.8931C22.3342 22.747 22.1364 22.6423 21.9201 22.5891L8.77163 18.8094C7.49975 18.441 7.46538 16.7754 8.72007 16.375L37.8185 6.98984C38.063 6.90977 38.3268 6.89572 38.5795 6.94929C38.8321 7.00286 39.0634 7.12188 39.2467 7.29263C39.4299 7.46338 39.5577 7.6789 39.6151 7.91436C39.6726 8.14981 39.6576 8.39562 39.5716 8.62343V8.62343Z" stroke="#A7AFB8" stroke-width="1.5" stroke-linecap="round" stroke-linejoin="round"/>
</g>
<defs>
<filter id="filter0_dd_6416_3349" x="0" y="0" width="48" height="45" filterUnits="userSpaceOnUse" color-interpolation-filters="sRGB">
<feFlood flood-opacity="0" result="BackgroundImageFix"/>
<feColorMatrix in="SourceAlpha" type="matrix" values="0 0 0 0 0 0 0 0 0 0 0 0 0 0 0 0 0 0 127 0" result="hardAlpha"/>
<feOffset dy="1"/>
<feGaussianBlur stdDeviation="1"/>
<feComposite in2="hardAlpha" operator="out"/>
<feColorMatrix type="matrix" values="0 0 0 0 0.356863 0 0 0 0 0.407843 0 0 0 0 0.443137 0 0 0 0.32 0"/>
<feBlend mode="normal" in2="BackgroundImageFix" result="effect1_dropShadow_6416_3349"/>
<feColorMatrix in="SourceAlpha" type="matrix" values="0 0 0 0 0 0 0 0 0 0 0 0 0 0 0 0 0 0 127 0" result="hardAlpha"/>
<feOffset/>
<feGaussianBlur stdDeviation="0.5"/>
<feComposite in2="hardAlpha" operator="out"/>
<feColorMatrix type="matrix" values="0 0 0 0 0.356863 0 0 0 0 0.407843 0 0 0 0 0.443137 0 0 0 0.32 0"/>
<feBlend mode="normal" in2="effect1_dropShadow_6416_3349" result="effect2_dropShadow_6416_3349"/>
<feBlend mode="normal" in="SourceGraphic" in2="effect2_dropShadow_6416_3349" result="shape"/>
</filter>
</defs>
</svg>
