<svg width="75" height="51" viewBox="0 0 75 51" fill="none" xmlns="http://www.w3.org/2000/svg">
<path d="M37.5 22.25C41.0899 22.25 44 19.3399 44 15.75C44 12.1601 41.0899 9.25 37.5 9.25C33.9101 9.25 31 12.1601 31 15.75C31 19.3399 33.9101 22.25 37.5 22.25Z" stroke="#A9B7C5" stroke-width="3" stroke-linecap="round" stroke-linejoin="round"/>
<path d="M27.6484 27.9374C28.6467 26.208 30.0827 24.7718 31.812 23.7732C33.5414 22.7747 35.5031 22.249 37.5 22.249C39.4969 22.249 41.4586 22.7747 43.188 23.7732C44.9173 24.7718 46.3533 26.208 47.3516 27.9374" stroke="#A9B7C5" stroke-width="3" stroke-linecap="round" stroke-linejoin="round"/>
<path d="M14.2638 43V36H20.2938V43H19.3138V36.61L19.5538 36.87H15.0038L15.2538 36.61V43H14.2638ZM25.1267 43.06C24.6867 43.06 24.2834 42.96 23.9167 42.76C23.5567 42.5533 23.2667 42.25 23.0467 41.85C22.8334 41.45 22.7267 40.95 22.7267 40.35C22.7267 39.75 22.8301 39.25 23.0367 38.85C23.2501 38.45 23.5367 38.15 23.8967 37.95C24.2634 37.75 24.6734 37.65 25.1267 37.65C25.6467 37.65 26.1067 37.7633 26.5067 37.99C26.9067 38.2167 27.2234 38.5333 27.4567 38.94C27.6901 39.34 27.8067 39.81 27.8067 40.35C27.8067 40.89 27.6901 41.3633 27.4567 41.77C27.2234 42.1767 26.9067 42.4933 26.5067 42.72C26.1067 42.9467 25.6467 43.06 25.1267 43.06ZM22.3167 44.94V37.7H23.2367V39.13L23.1767 40.36L23.2767 41.59V44.94H22.3167ZM25.0467 42.22C25.3867 42.22 25.6901 42.1433 25.9567 41.99C26.2301 41.8367 26.4434 41.62 26.5967 41.34C26.7567 41.0533 26.8367 40.7233 26.8367 40.35C26.8367 39.97 26.7567 39.6433 26.5967 39.37C26.4434 39.09 26.2301 38.8733 25.9567 38.72C25.6901 38.5667 25.3867 38.49 25.0467 38.49C24.7134 38.49 24.4101 38.5667 24.1367 38.72C23.8701 38.8733 23.6567 39.09 23.4967 39.37C23.3434 39.6433 23.2667 39.97 23.2667 40.35C23.2667 40.7233 23.3434 41.0533 23.4967 41.34C23.6567 41.62 23.8701 41.8367 24.1367 41.99C24.4101 42.1433 24.7134 42.22 25.0467 42.22ZM31.4715 43.06C30.9382 43.06 30.4648 42.9433 30.0515 42.71C29.6382 42.4767 29.3115 42.1567 29.0715 41.75C28.8315 41.3367 28.7115 40.87 28.7115 40.35C28.7115 39.8233 28.8315 39.3567 29.0715 38.95C29.3115 38.5433 29.6382 38.2267 30.0515 38C30.4648 37.7667 30.9382 37.65 31.4715 37.65C31.9982 37.65 32.4682 37.7667 32.8815 38C33.3015 38.2267 33.6282 38.5433 33.8615 38.95C34.1015 39.35 34.2215 39.8167 34.2215 40.35C34.2215 40.8767 34.1015 41.3433 33.8615 41.75C33.6282 42.1567 33.3015 42.4767 32.8815 42.71C32.4682 42.9433 31.9982 43.06 31.4715 43.06ZM31.4715 42.22C31.8115 42.22 32.1148 42.1433 32.3815 41.99C32.6548 41.8367 32.8682 41.62 33.0215 41.34C33.1748 41.0533 33.2515 40.7233 33.2515 40.35C33.2515 39.97 33.1748 39.6433 33.0215 39.37C32.8682 39.09 32.6548 38.8733 32.3815 38.72C32.1148 38.5667 31.8115 38.49 31.4715 38.49C31.1315 38.49 30.8282 38.5667 30.5615 38.72C30.2948 38.8733 30.0815 39.09 29.9215 39.37C29.7615 39.6433 29.6815 39.97 29.6815 40.35C29.6815 40.7233 29.7615 41.0533 29.9215 41.34C30.0815 41.62 30.2948 41.8367 30.5615 41.99C30.8282 42.1433 31.1315 42.22 31.4715 42.22ZM38.7677 43.08C38.7611 43.08 38.7377 43.08 38.6977 43.08C38.6644 43.08 38.6311 43.08 38.5977 43.08C38.5644 43.08 38.5444 43.08 38.5377 43.08C37.4511 43.0667 36.6077 42.8267 36.0077 42.36C35.4077 41.8867 35.1077 41.2133 35.1077 40.34C35.1077 39.4733 35.4077 38.81 36.0077 38.35C36.6144 37.8833 37.4677 37.6467 38.5677 37.64C38.5811 37.64 38.6011 37.64 38.6277 37.64C38.6611 37.64 38.6911 37.64 38.7177 37.64C38.7511 37.64 38.7711 37.64 38.7777 37.64C39.8911 37.64 40.7544 37.8733 41.3677 38.34C41.9877 38.8067 42.2977 39.4733 42.2977 40.34C42.2977 41.22 41.9877 41.8967 41.3677 42.37C40.7477 42.8433 39.8811 43.08 38.7677 43.08ZM38.7477 42.24C39.3277 42.24 39.8077 42.1667 40.1877 42.02C40.5744 41.8733 40.8644 41.66 41.0577 41.38C41.2511 41.1 41.3477 40.7533 41.3477 40.34C41.3477 39.9333 41.2511 39.5933 41.0577 39.32C40.8644 39.0467 40.5744 38.84 40.1877 38.7C39.8077 38.56 39.3277 38.49 38.7477 38.49C38.7344 38.49 38.7077 38.49 38.6677 38.49C38.6277 38.49 38.6044 38.49 38.5977 38.49C38.0311 38.49 37.5577 38.5633 37.1777 38.71C36.8044 38.85 36.5244 39.0567 36.3377 39.33C36.1511 39.6033 36.0577 39.94 36.0577 40.34C36.0577 40.7467 36.1511 41.09 36.3377 41.37C36.5311 41.65 36.8144 41.8633 37.1877 42.01C37.5677 42.1567 38.0377 42.2333 38.5977 42.24C38.6111 42.24 38.6344 42.24 38.6677 42.24C38.7077 42.24 38.7344 42.24 38.7477 42.24ZM38.2277 44.94V35.58H39.1677V44.94H38.2277ZM43.6546 43V37.7H44.6146V41.56L47.8646 37.7H48.7346V43H47.7746V39.14L44.5346 43H43.6546ZM49.718 42.99L49.778 42.18C49.8246 42.1867 49.868 42.1933 49.908 42.2C49.948 42.2067 49.9846 42.21 50.018 42.21C50.2313 42.21 50.398 42.1367 50.518 41.99C50.6446 41.8433 50.738 41.65 50.798 41.41C50.858 41.1633 50.9013 40.8867 50.928 40.58C50.9546 40.2733 50.9746 39.9667 50.988 39.66L51.078 37.7H55.148V43H54.188V38.26L54.418 38.54H51.698L51.918 38.25L51.848 39.72C51.828 40.1867 51.7913 40.6233 51.738 41.03C51.6846 41.4367 51.6013 41.7933 51.488 42.1C51.3813 42.4067 51.2313 42.6467 51.038 42.82C50.8513 42.9933 50.608 43.08 50.308 43.08C50.2213 43.08 50.128 43.07 50.028 43.05C49.9346 43.0367 49.8313 43.0167 49.718 42.99ZM59.4542 39.5C60.1276 39.5067 60.6409 39.66 60.9942 39.96C61.3476 40.26 61.5242 40.6833 61.5242 41.23C61.5242 41.8033 61.3309 42.2467 60.9442 42.56C60.5576 42.8667 60.0109 43.0167 59.3042 43.01L57.0042 43V37.7H57.9642V39.49L59.4542 39.5ZM59.2242 42.28C59.6576 42.2867 59.9842 42.2 60.2042 42.02C60.4309 41.84 60.5442 41.5733 60.5442 41.22C60.5442 40.8733 60.4342 40.62 60.2142 40.46C59.9942 40.3 59.6642 40.2167 59.2242 40.21L57.9642 40.19V42.27L59.2242 42.28Z" fill="#707982"/>
</svg>
