<svg width="69" height="51" viewBox="0 0 69 51" fill="none" xmlns="http://www.w3.org/2000/svg">
<g clip-path="url(#clip0_7958_2480)">
<path d="M37.5 22.25C41.0899 22.25 44 19.3399 44 15.75C44 12.1601 41.0899 9.25 37.5 9.25C33.9101 9.25 31 12.1601 31 15.75C31 19.3399 33.9101 22.25 37.5 22.25Z" stroke="white" stroke-width="3" stroke-linecap="round" stroke-linejoin="round"/>
<path d="M27.6484 27.9374C28.6467 26.208 30.0827 24.7718 31.812 23.7732C33.5414 22.7747 35.5031 22.249 37.5 22.249C39.4969 22.249 41.4586 22.7747 43.188 23.7732C44.9173 24.7718 46.3533 26.208 47.3516 27.9374" stroke="white" stroke-width="3" stroke-linecap="round" stroke-linejoin="round"/>
<g filter="url(#filter0_d_7958_2480)">
<path d="M16.5293 34.8906V42H15.3086V35.8672H12.1494V42H10.9287V34.8906H16.5293ZM21.0684 37.7324V44.0312H19.8916V36.7168H20.9756L21.0684 37.7324ZM24.5107 39.3096V39.4121C24.5107 39.7962 24.4652 40.1527 24.374 40.4814C24.2861 40.807 24.1543 41.0918 23.9785 41.3359C23.806 41.5768 23.5928 41.764 23.3389 41.8975C23.085 42.0309 22.792 42.0977 22.46 42.0977C22.1312 42.0977 21.8431 42.0374 21.5957 41.917C21.3516 41.7933 21.1449 41.6191 20.9756 41.3945C20.8063 41.1699 20.6696 40.9062 20.5654 40.6035C20.4645 40.2975 20.3929 39.9622 20.3506 39.5977V39.2021C20.3929 38.8148 20.4645 38.4632 20.5654 38.1475C20.6696 37.8317 20.8063 37.5599 20.9756 37.332C21.1449 37.1042 21.3516 36.9284 21.5957 36.8047C21.8398 36.681 22.1247 36.6191 22.4502 36.6191C22.7822 36.6191 23.0768 36.6842 23.334 36.8145C23.5911 36.9414 23.8076 37.1237 23.9834 37.3613C24.1592 37.5957 24.291 37.8789 24.3789 38.2109C24.4668 38.5397 24.5107 38.9059 24.5107 39.3096ZM23.334 39.4121V39.3096C23.334 39.0654 23.3112 38.8392 23.2656 38.6309C23.2201 38.4193 23.1484 38.2337 23.0508 38.0742C22.9531 37.9147 22.8278 37.791 22.6748 37.7031C22.5251 37.612 22.3444 37.5664 22.1328 37.5664C21.9245 37.5664 21.7454 37.6022 21.5957 37.6738C21.446 37.7422 21.3206 37.8382 21.2197 37.9619C21.1188 38.0856 21.0407 38.2305 20.9854 38.3965C20.93 38.5592 20.891 38.7367 20.8682 38.9287V39.876C20.9072 40.1104 20.974 40.3252 21.0684 40.5205C21.1628 40.7158 21.2962 40.8721 21.4688 40.9893C21.6445 41.1032 21.8691 41.1602 22.1426 41.1602C22.3542 41.1602 22.5348 41.1146 22.6846 41.0234C22.8343 40.9323 22.9564 40.807 23.0508 40.6475C23.1484 40.4847 23.2201 40.2975 23.2656 40.0859C23.3112 39.8743 23.334 39.6497 23.334 39.4121ZM27.2871 39.417V39.3047C27.2871 38.9238 27.3424 38.5706 27.4531 38.2451C27.5638 37.9163 27.7233 37.6315 27.9316 37.3906C28.1432 37.1465 28.4004 36.9577 28.7031 36.8242C29.0091 36.6875 29.3542 36.6191 29.7383 36.6191C30.1257 36.6191 30.4707 36.6875 30.7734 36.8242C31.0794 36.9577 31.3382 37.1465 31.5498 37.3906C31.7614 37.6315 31.9225 37.9163 32.0332 38.2451C32.1439 38.5706 32.1992 38.9238 32.1992 39.3047V39.417C32.1992 39.7979 32.1439 40.151 32.0332 40.4766C31.9225 40.8021 31.7614 41.0869 31.5498 41.3311C31.3382 41.5719 31.0811 41.7607 30.7783 41.8975C30.4756 42.0309 30.1322 42.0977 29.748 42.0977C29.3607 42.0977 29.014 42.0309 28.708 41.8975C28.4053 41.7607 28.1481 41.5719 27.9365 41.3311C27.7249 41.0869 27.5638 40.8021 27.4531 40.4766C27.3424 40.151 27.2871 39.7979 27.2871 39.417ZM28.4639 39.3047V39.417C28.4639 39.6546 28.4883 39.8792 28.5371 40.0908C28.5859 40.3024 28.6624 40.488 28.7666 40.6475C28.8708 40.807 29.0042 40.9323 29.167 41.0234C29.3298 41.1146 29.5234 41.1602 29.748 41.1602C29.9661 41.1602 30.1549 41.1146 30.3145 41.0234C30.4772 40.9323 30.6107 40.807 30.7148 40.6475C30.819 40.488 30.8955 40.3024 30.9443 40.0908C30.9964 39.8792 31.0225 39.6546 31.0225 39.417V39.3047C31.0225 39.0703 30.9964 38.849 30.9443 38.6406C30.8955 38.429 30.8174 38.2419 30.71 38.0791C30.6058 37.9163 30.4723 37.7894 30.3096 37.6982C30.1501 37.6038 29.9596 37.5566 29.7383 37.5566C29.5169 37.5566 29.3249 37.6038 29.1621 37.6982C29.0026 37.7894 28.8708 37.9163 28.7666 38.0791C28.6624 38.2419 28.5859 38.429 28.5371 38.6406C28.4883 38.849 28.4639 39.0703 28.4639 39.3047ZM41.46 39.4219V39.5244C41.46 39.8988 41.4176 40.2438 41.333 40.5596C41.2516 40.8721 41.1296 41.1439 40.9668 41.375C40.804 41.6061 40.6022 41.7852 40.3613 41.9121C40.1237 42.0391 39.847 42.1025 39.5312 42.1025C39.2546 42.1025 39.0137 42.0553 38.8086 41.9609C38.6035 41.8665 38.431 41.7347 38.291 41.5654C38.151 41.3929 38.0387 41.1911 37.9541 40.96C37.8695 40.7256 37.8076 40.4684 37.7686 40.1885V38.6602C37.8076 38.3607 37.8678 38.0872 37.9492 37.8398C38.0339 37.5892 38.1462 37.3727 38.2861 37.1904C38.4294 37.0081 38.6019 36.8682 38.8037 36.7705C39.0055 36.6696 39.2448 36.6191 39.5215 36.6191C39.7754 36.6191 40.0049 36.6647 40.21 36.7559C40.415 36.8438 40.5957 36.9707 40.752 37.1367C40.9082 37.2995 41.0384 37.4964 41.1426 37.7275C41.2467 37.9554 41.3249 38.2126 41.377 38.499C41.4323 38.7855 41.46 39.0931 41.46 39.4219ZM40.2832 39.5244V39.4219C40.2832 39.2168 40.2702 39.0215 40.2441 38.8359C40.2181 38.6504 40.1774 38.4811 40.1221 38.3281C40.07 38.1719 40.0016 38.0368 39.917 37.9229C39.8324 37.8057 39.7298 37.7161 39.6094 37.6543C39.4922 37.5892 39.3555 37.5566 39.1992 37.5566C38.9876 37.5566 38.8118 37.5924 38.6719 37.6641C38.5352 37.7324 38.431 37.8301 38.3594 37.957C38.291 38.0807 38.2471 38.224 38.2275 38.3867V40.4668C38.2503 40.6035 38.2975 40.724 38.3691 40.8281C38.444 40.9323 38.5498 41.0153 38.6865 41.0771C38.8232 41.1357 38.9974 41.165 39.209 41.165C39.4043 41.165 39.5687 41.1243 39.7021 41.043C39.8389 40.9583 39.9495 40.8411 40.0342 40.6914C40.1221 40.5417 40.1855 40.3675 40.2246 40.1689C40.2637 39.9704 40.2832 39.7555 40.2832 39.5244ZM34.9854 39.5244V39.4219C34.9854 39.0931 35.0114 38.7855 35.0635 38.499C35.1156 38.2126 35.1937 37.9554 35.2979 37.7275C35.4053 37.4964 35.5371 37.2995 35.6934 37.1367C35.8496 36.9707 36.0303 36.8438 36.2354 36.7559C36.4404 36.6647 36.6699 36.6191 36.9238 36.6191C37.1973 36.6191 37.4333 36.6696 37.6318 36.7705C37.8304 36.8682 37.998 37.0081 38.1348 37.1904C38.2747 37.3727 38.3854 37.5892 38.4668 37.8398C38.5514 38.0872 38.6133 38.3607 38.6523 38.6602V40.1299C38.6165 40.4163 38.5563 40.68 38.4717 40.9209C38.387 41.1618 38.2764 41.3701 38.1396 41.5459C38.0029 41.7217 37.8337 41.8584 37.6318 41.9561C37.43 42.0537 37.1908 42.1025 36.9141 42.1025C36.6016 42.1025 36.3249 42.0391 36.084 41.9121C35.8431 41.7852 35.6413 41.6061 35.4785 41.375C35.3158 41.1439 35.1921 40.8721 35.1074 40.5596C35.026 40.2438 34.9854 39.8988 34.9854 39.5244ZM36.1621 39.4219V39.5244C36.1621 39.7555 36.18 39.9704 36.2158 40.1689C36.2549 40.3675 36.3151 40.5417 36.3965 40.6914C36.4779 40.8379 36.5853 40.9535 36.7188 41.0381C36.8522 41.1227 37.0166 41.165 37.2119 41.165C37.4268 41.165 37.6025 41.1325 37.7393 41.0674C37.876 41.0023 37.9801 40.9128 38.0518 40.7988C38.1266 40.6849 38.1755 40.5547 38.1982 40.4082V38.3867C38.1787 38.224 38.1331 38.0807 38.0615 37.957C37.9899 37.8301 37.8857 37.7324 37.749 37.6641C37.6123 37.5924 37.4365 37.5566 37.2217 37.5566C37.0264 37.5566 36.8604 37.6055 36.7236 37.7031C36.5902 37.8008 36.4811 37.9359 36.3965 38.1084C36.3151 38.2777 36.2549 38.4762 36.2158 38.7041C36.18 38.9287 36.1621 39.168 36.1621 39.4219ZM37.6074 44.0312V34.5H38.7891V44.0312H37.6074ZM45.6865 40.2812L47.7617 36.7168H48.9385V42H47.7617V38.4307L45.6865 42H44.5098V36.7168H45.6865V40.2812ZM55.7334 36.7168V37.6543H53.1553V36.7168H55.7334ZM56.6562 36.7168V42H55.4795V36.7168H56.6562ZM52.8672 36.7168H54.0293L53.8877 39.3291C53.8682 39.7165 53.8291 40.0583 53.7705 40.3545C53.7152 40.6475 53.6403 40.8997 53.5459 41.1113C53.4515 41.3197 53.3359 41.4889 53.1992 41.6191C53.0625 41.7493 52.903 41.8454 52.7207 41.9072C52.5384 41.9691 52.3333 42 52.1055 42H51.7393L51.7344 41.0332L51.9199 41.0186C52.0404 41.0088 52.1445 40.9779 52.2324 40.9258C52.3203 40.8704 52.3952 40.7923 52.457 40.6914C52.5221 40.5905 52.5742 40.4603 52.6133 40.3008C52.6556 40.1413 52.6882 39.9525 52.7109 39.7344C52.737 39.5163 52.7565 39.2624 52.7695 38.9727L52.8672 36.7168ZM60.7803 38.3965H62.3379C62.7936 38.3965 63.181 38.473 63.5 38.626C63.819 38.779 64.0615 38.9922 64.2275 39.2656C64.3968 39.5358 64.4814 39.8451 64.4814 40.1934C64.4814 40.4505 64.4342 40.6898 64.3398 40.9111C64.2454 41.1292 64.1055 41.3197 63.9199 41.4824C63.7376 41.6452 63.513 41.7721 63.2461 41.8633C62.9824 41.9544 62.6797 42 62.3379 42H59.999V36.7168H61.1807V41.0674H62.3379C62.5723 41.0674 62.7594 41.0267 62.8994 40.9453C63.0394 40.8639 63.1403 40.7581 63.2021 40.6279C63.2673 40.4977 63.2998 40.3594 63.2998 40.2129C63.2998 40.0632 63.2673 39.9215 63.2021 39.7881C63.1403 39.6546 63.0394 39.5456 62.8994 39.4609C62.7594 39.3763 62.5723 39.334 62.3379 39.334H60.7803V38.3965Z" fill="white"/>
</g>
</g>
<defs>
<filter id="filter0_d_7958_2480" x="6.92969" y="34.5" width="61.5508" height="17.5312" filterUnits="userSpaceOnUse" color-interpolation-filters="sRGB">
<feFlood flood-opacity="0" result="BackgroundImageFix"/>
<feColorMatrix in="SourceAlpha" type="matrix" values="0 0 0 0 0 0 0 0 0 0 0 0 0 0 0 0 0 0 127 0" result="hardAlpha"/>
<feOffset dy="4"/>
<feGaussianBlur stdDeviation="2"/>
<feComposite in2="hardAlpha" operator="out"/>
<feColorMatrix type="matrix" values="0 0 0 0 0 0 0 0 0 0 0 0 0 0 0 0 0 0 0.25 0"/>
<feBlend mode="normal" in2="BackgroundImageFix" result="effect1_dropShadow_7958_2480"/>
<feBlend mode="normal" in="SourceGraphic" in2="effect1_dropShadow_7958_2480" result="shape"/>
</filter>
<clipPath id="clip0_7958_2480">
<rect width="75" height="51" fill="white"/>
</clipPath>
</defs>
</svg>
