<svg width="75" height="51" viewBox="0 0 75 51" fill="none" xmlns="http://www.w3.org/2000/svg">
<path d="M37.5 28.75C42.8848 28.75 47.25 24.3848 47.25 19C47.25 13.6152 42.8848 9.25 37.5 9.25C32.1152 9.25 27.75 13.6152 27.75 19C27.75 24.3848 32.1152 28.75 37.5 28.75Z" stroke="#A9B7C5" stroke-width="3" stroke-linecap="round" stroke-linejoin="round"/>
<path d="M37.5 24.2812C40.4168 24.2812 42.7812 21.9168 42.7812 19C42.7812 16.0832 40.4168 13.7188 37.5 13.7188C34.5832 13.7188 32.2188 16.0832 32.2188 19C32.2188 21.9168 34.5832 24.2812 37.5 24.2812Z" stroke="#A9B7C5" stroke-width="3" stroke-linecap="round" stroke-linejoin="round"/>
<path d="M19.7376 43.08C19.2042 43.08 18.7109 42.9933 18.2576 42.82C17.8109 42.64 17.4209 42.39 17.0876 42.07C16.7609 41.7433 16.5042 41.3633 16.3176 40.93C16.1309 40.4967 16.0376 40.02 16.0376 39.5C16.0376 38.98 16.1309 38.5033 16.3176 38.07C16.5042 37.6367 16.7642 37.26 17.0976 36.94C17.4309 36.6133 17.8209 36.3633 18.2676 36.19C18.7209 36.01 19.2142 35.92 19.7476 35.92C20.2876 35.92 20.7842 36.0133 21.2376 36.2C21.6976 36.38 22.0876 36.65 22.4076 37.01L21.7576 37.64C21.4909 37.36 21.1909 37.1533 20.8576 37.02C20.5242 36.88 20.1676 36.81 19.7876 36.81C19.3942 36.81 19.0276 36.8767 18.6876 37.01C18.3542 37.1433 18.0642 37.33 17.8176 37.57C17.5709 37.81 17.3776 38.0967 17.2376 38.43C17.1042 38.7567 17.0376 39.1133 17.0376 39.5C17.0376 39.8867 17.1042 40.2467 17.2376 40.58C17.3776 40.9067 17.5709 41.19 17.8176 41.43C18.0642 41.67 18.3542 41.8567 18.6876 41.99C19.0276 42.1233 19.3942 42.19 19.7876 42.19C20.1676 42.19 20.5242 42.1233 20.8576 41.99C21.1909 41.85 21.4909 41.6367 21.7576 41.35L22.4076 41.98C22.0876 42.34 21.6976 42.6133 21.2376 42.8C20.7842 42.9867 20.2842 43.08 19.7376 43.08ZM24.5288 43V38.29L24.7688 38.54H22.5888V37.7H27.4288V38.54H25.2588L25.4888 38.29V43H24.5288ZM31.2205 43.06C30.7805 43.06 30.3771 42.96 30.0105 42.76C29.6505 42.5533 29.3605 42.25 29.1405 41.85C28.9271 41.45 28.8205 40.95 28.8205 40.35C28.8205 39.75 28.9238 39.25 29.1305 38.85C29.3438 38.45 29.6305 38.15 29.9905 37.95C30.3571 37.75 30.7671 37.65 31.2205 37.65C31.7405 37.65 32.2005 37.7633 32.6005 37.99C33.0005 38.2167 33.3171 38.5333 33.5505 38.94C33.7838 39.34 33.9005 39.81 33.9005 40.35C33.9005 40.89 33.7838 41.3633 33.5505 41.77C33.3171 42.1767 33.0005 42.4933 32.6005 42.72C32.2005 42.9467 31.7405 43.06 31.2205 43.06ZM28.4105 44.94V37.7H29.3305V39.13L29.2705 40.36L29.3705 41.59V44.94H28.4105ZM31.1405 42.22C31.4805 42.22 31.7838 42.1433 32.0505 41.99C32.3238 41.8367 32.5371 41.62 32.6905 41.34C32.8505 41.0533 32.9305 40.7233 32.9305 40.35C32.9305 39.97 32.8505 39.6433 32.6905 39.37C32.5371 39.09 32.3238 38.8733 32.0505 38.72C31.7838 38.5667 31.4805 38.49 31.1405 38.49C30.8071 38.49 30.5038 38.5667 30.2305 38.72C29.9638 38.8733 29.7505 39.09 29.5905 39.37C29.4371 39.6433 29.3605 39.97 29.3605 40.35C29.3605 40.7233 29.4371 41.0533 29.5905 41.34C29.7505 41.62 29.9638 41.8367 30.2305 41.99C30.5038 42.1433 30.8071 42.22 31.1405 42.22ZM37.5652 43.06C37.0319 43.06 36.5586 42.9433 36.1452 42.71C35.7319 42.4767 35.4052 42.1567 35.1652 41.75C34.9252 41.3367 34.8052 40.87 34.8052 40.35C34.8052 39.8233 34.9252 39.3567 35.1652 38.95C35.4052 38.5433 35.7319 38.2267 36.1452 38C36.5586 37.7667 37.0319 37.65 37.5652 37.65C38.0919 37.65 38.5619 37.7667 38.9752 38C39.3952 38.2267 39.7219 38.5433 39.9552 38.95C40.1952 39.35 40.3152 39.8167 40.3152 40.35C40.3152 40.8767 40.1952 41.3433 39.9552 41.75C39.7219 42.1567 39.3952 42.4767 38.9752 42.71C38.5619 42.9433 38.0919 43.06 37.5652 43.06ZM37.5652 42.22C37.9052 42.22 38.2086 42.1433 38.4752 41.99C38.7486 41.8367 38.9619 41.62 39.1152 41.34C39.2686 41.0533 39.3452 40.7233 39.3452 40.35C39.3452 39.97 39.2686 39.6433 39.1152 39.37C38.9619 39.09 38.7486 38.8733 38.4752 38.72C38.2086 38.5667 37.9052 38.49 37.5652 38.49C37.2252 38.49 36.9219 38.5667 36.6552 38.72C36.3886 38.8733 36.1752 39.09 36.0152 39.37C35.8552 39.6433 35.7752 39.97 35.7752 40.35C35.7752 40.7233 35.8552 41.0533 36.0152 41.34C36.1752 41.62 36.3886 41.8367 36.6552 41.99C36.9219 42.1433 37.2252 42.22 37.5652 42.22ZM41.7015 43V37.7H42.6615V41.56L45.9115 37.7H46.7815V43H45.8215V39.14L42.5815 43H41.7015ZM44.1815 37.01C43.6948 37.01 43.3115 36.8933 43.0315 36.66C42.7582 36.42 42.6182 36.0767 42.6115 35.63H43.2615C43.2682 35.8833 43.3515 36.0833 43.5115 36.23C43.6782 36.3767 43.8982 36.45 44.1715 36.45C44.4448 36.45 44.6648 36.3767 44.8315 36.23C44.9982 36.0833 45.0848 35.8833 45.0915 35.63H45.7615C45.7548 36.0767 45.6115 36.42 45.3315 36.66C45.0515 36.8933 44.6682 37.01 44.1815 37.01ZM52.4848 43L50.4348 40.42L51.2248 39.94L53.6148 43H52.4848ZM48.6448 43V37.7H49.6048V43H48.6448ZM49.3148 40.76V39.94H51.0648V40.76H49.3148ZM51.3048 40.46L50.4148 40.34L52.4448 37.7H53.4748L51.3048 40.46ZM57.7738 43V41.88L57.7238 41.67V39.76C57.7238 39.3533 57.6038 39.04 57.3638 38.82C57.1304 38.5933 56.7771 38.48 56.3038 38.48C55.9904 38.48 55.6838 38.5333 55.3838 38.64C55.0838 38.74 54.8304 38.8767 54.6238 39.05L54.2238 38.33C54.4971 38.11 54.8238 37.9433 55.2038 37.83C55.5904 37.71 55.9938 37.65 56.4138 37.65C57.1404 37.65 57.7004 37.8267 58.0938 38.18C58.4871 38.5333 58.6838 39.0733 58.6838 39.8V43H57.7738ZM56.0338 43.06C55.6404 43.06 55.2938 42.9933 54.9938 42.86C54.7004 42.7267 54.4738 42.5433 54.3138 42.31C54.1538 42.07 54.0738 41.8 54.0738 41.5C54.0738 41.2133 54.1404 40.9533 54.2738 40.72C54.4138 40.4867 54.6371 40.3 54.9438 40.16C55.2571 40.02 55.6771 39.95 56.2038 39.95H57.8838V40.64H56.2438C55.7638 40.64 55.4404 40.72 55.2738 40.88C55.1071 41.04 55.0238 41.2333 55.0238 41.46C55.0238 41.72 55.1271 41.93 55.3338 42.09C55.5404 42.2433 55.8271 42.32 56.1938 42.32C56.5538 42.32 56.8671 42.24 57.1338 42.08C57.4071 41.92 57.6038 41.6867 57.7238 41.38L57.9138 42.04C57.7871 42.3533 57.5638 42.6033 57.2438 42.79C56.9238 42.97 56.5204 43.06 56.0338 43.06Z" fill="#707982"/>
</svg>
