<svg width="75" height="51" viewBox="0 0 75 51" fill="none" xmlns="http://www.w3.org/2000/svg">
<path d="M37.5 28.75C42.8848 28.75 47.25 24.3848 47.25 19C47.25 13.6152 42.8848 9.25 37.5 9.25C32.1152 9.25 27.75 13.6152 27.75 19C27.75 24.3848 32.1152 28.75 37.5 28.75Z" stroke="white" stroke-width="3" stroke-linecap="round" stroke-linejoin="round"/>
<path d="M37.5 24.2812C40.4168 24.2812 42.7812 21.9168 42.7812 19C42.7812 16.0832 40.4168 13.7188 37.5 13.7188C34.5832 13.7188 32.2188 16.0832 32.2188 19C32.2188 21.9168 34.5832 24.2812 37.5 24.2812Z" stroke="white" stroke-width="3" stroke-linecap="round" stroke-linejoin="round"/>
<path d="M16.7051 39.6855H17.9258C17.8867 40.151 17.7565 40.5661 17.5352 40.9307C17.3138 41.292 17.0029 41.5768 16.6025 41.7852C16.2021 41.9935 15.7155 42.0977 15.1426 42.0977C14.7031 42.0977 14.3076 42.0195 13.9561 41.8633C13.6045 41.7038 13.3034 41.4792 13.0527 41.1895C12.8021 40.8965 12.61 40.5433 12.4766 40.1299C12.3464 39.7165 12.2812 39.2542 12.2812 38.7432V38.1523C12.2812 37.6413 12.348 37.179 12.4814 36.7656C12.6182 36.3522 12.8135 35.999 13.0674 35.7061C13.3213 35.4098 13.6257 35.1836 13.9805 35.0273C14.3385 34.8711 14.7406 34.793 15.1865 34.793C15.7529 34.793 16.2314 34.8971 16.6221 35.1055C17.0127 35.3138 17.3154 35.6019 17.5303 35.9697C17.7484 36.3376 17.8818 36.7591 17.9307 37.2344H16.71C16.6774 36.9284 16.6058 36.6663 16.4951 36.4482C16.3877 36.2301 16.2282 36.0641 16.0166 35.9502C15.805 35.833 15.5283 35.7744 15.1865 35.7744C14.9066 35.7744 14.6624 35.8265 14.4541 35.9307C14.2458 36.0348 14.0716 36.1878 13.9316 36.3896C13.7917 36.5915 13.6859 36.8405 13.6143 37.1367C13.5459 37.4297 13.5117 37.765 13.5117 38.1426V38.7432C13.5117 39.1012 13.5426 39.4268 13.6045 39.7197C13.6696 40.0094 13.7673 40.2585 13.8975 40.4668C14.0309 40.6751 14.2002 40.8363 14.4053 40.9502C14.6104 41.0641 14.8561 41.1211 15.1426 41.1211C15.4909 41.1211 15.7725 41.0658 15.9873 40.9551C16.2054 40.8444 16.3698 40.6833 16.4805 40.4717C16.5944 40.2568 16.6693 39.9948 16.7051 39.6855ZM23.373 36.7168V42H22.1914V36.7168H23.373ZM25.1064 36.7168V37.6445H20.4873V36.7168H25.1064ZM29.0742 37.7324V44.0312H27.8975V36.7168H28.9814L29.0742 37.7324ZM32.5166 39.3096V39.4121C32.5166 39.7962 32.471 40.1527 32.3799 40.4814C32.292 40.807 32.1602 41.0918 31.9844 41.3359C31.8118 41.5768 31.5986 41.764 31.3447 41.8975C31.0908 42.0309 30.7979 42.0977 30.4658 42.0977C30.137 42.0977 29.849 42.0374 29.6016 41.917C29.3574 41.7933 29.1507 41.6191 28.9814 41.3945C28.8122 41.1699 28.6755 40.9062 28.5713 40.6035C28.4704 40.2975 28.3988 39.9622 28.3564 39.5977V39.2021C28.3988 38.8148 28.4704 38.4632 28.5713 38.1475C28.6755 37.8317 28.8122 37.5599 28.9814 37.332C29.1507 37.1042 29.3574 36.9284 29.6016 36.8047C29.8457 36.681 30.1305 36.6191 30.4561 36.6191C30.7881 36.6191 31.0827 36.6842 31.3398 36.8145C31.597 36.9414 31.8135 37.1237 31.9893 37.3613C32.165 37.5957 32.2969 37.8789 32.3848 38.2109C32.4727 38.5397 32.5166 38.9059 32.5166 39.3096ZM31.3398 39.4121V39.3096C31.3398 39.0654 31.3171 38.8392 31.2715 38.6309C31.2259 38.4193 31.1543 38.2337 31.0566 38.0742C30.959 37.9147 30.8337 37.791 30.6807 37.7031C30.5309 37.612 30.3503 37.5664 30.1387 37.5664C29.9303 37.5664 29.7513 37.6022 29.6016 37.6738C29.4518 37.7422 29.3265 37.8382 29.2256 37.9619C29.1247 38.0856 29.0465 38.2305 28.9912 38.3965C28.9359 38.5592 28.8968 38.7367 28.874 38.9287V39.876C28.9131 40.1104 28.9798 40.3252 29.0742 40.5205C29.1686 40.7158 29.3021 40.8721 29.4746 40.9893C29.6504 41.1032 29.875 41.1602 30.1484 41.1602C30.36 41.1602 30.5407 41.1146 30.6904 41.0234C30.8402 40.9323 30.9622 40.807 31.0566 40.6475C31.1543 40.4847 31.2259 40.2975 31.2715 40.0859C31.3171 39.8743 31.3398 39.6497 31.3398 39.4121ZM35.293 39.417V39.3047C35.293 38.9238 35.3483 38.5706 35.459 38.2451C35.5697 37.9163 35.7292 37.6315 35.9375 37.3906C36.1491 37.1465 36.4062 36.9577 36.709 36.8242C37.015 36.6875 37.36 36.6191 37.7441 36.6191C38.1315 36.6191 38.4766 36.6875 38.7793 36.8242C39.0853 36.9577 39.3441 37.1465 39.5557 37.3906C39.7673 37.6315 39.9284 37.9163 40.0391 38.2451C40.1497 38.5706 40.2051 38.9238 40.2051 39.3047V39.417C40.2051 39.7979 40.1497 40.151 40.0391 40.4766C39.9284 40.8021 39.7673 41.0869 39.5557 41.3311C39.3441 41.5719 39.0869 41.7607 38.7842 41.8975C38.4814 42.0309 38.138 42.0977 37.7539 42.0977C37.3665 42.0977 37.0199 42.0309 36.7139 41.8975C36.4111 41.7607 36.154 41.5719 35.9424 41.3311C35.7308 41.0869 35.5697 40.8021 35.459 40.4766C35.3483 40.151 35.293 39.7979 35.293 39.417ZM36.4697 39.3047V39.417C36.4697 39.6546 36.4941 39.8792 36.543 40.0908C36.5918 40.3024 36.6683 40.488 36.7725 40.6475C36.8766 40.807 37.0101 40.9323 37.1729 41.0234C37.3356 41.1146 37.5293 41.1602 37.7539 41.1602C37.972 41.1602 38.1608 41.1146 38.3203 41.0234C38.4831 40.9323 38.6165 40.807 38.7207 40.6475C38.8249 40.488 38.9014 40.3024 38.9502 40.0908C39.0023 39.8792 39.0283 39.6546 39.0283 39.417V39.3047C39.0283 39.0703 39.0023 38.849 38.9502 38.6406C38.9014 38.429 38.8232 38.2419 38.7158 38.0791C38.6117 37.9163 38.4782 37.7894 38.3154 37.6982C38.1559 37.6038 37.9655 37.5566 37.7441 37.5566C37.5228 37.5566 37.3307 37.6038 37.168 37.6982C37.0085 37.7894 36.8766 37.9163 36.7725 38.0791C36.6683 38.2419 36.5918 38.429 36.543 38.6406C36.4941 38.849 36.4697 39.0703 36.4697 39.3047ZM44.4072 40.2812L46.4824 36.7168H47.6592V42H46.4824V38.4307L44.4072 42H43.2305V36.7168H44.4072V40.2812ZM46.1699 34.6855H47.0439C47.0439 34.9557 46.9788 35.195 46.8486 35.4033C46.7217 35.6084 46.5394 35.7695 46.3018 35.8867C46.0674 36.0039 45.7874 36.0625 45.4619 36.0625C44.9704 36.0625 44.5814 35.9355 44.2949 35.6816C44.0117 35.4245 43.8701 35.0924 43.8701 34.6855H44.7441C44.7441 34.8678 44.7979 35.029 44.9053 35.1689C45.016 35.3057 45.2015 35.374 45.4619 35.374C45.7191 35.374 45.9014 35.3057 46.0088 35.1689C46.1162 35.029 46.1699 34.8678 46.1699 34.6855ZM52.1738 36.7168V42H50.9971V36.7168H52.1738ZM55.6211 36.7168L53.2432 39.8955H51.9004L51.7441 38.8311H52.7256L54.1514 36.7168H55.6211ZM54.2441 42L52.6523 39.6953L53.5801 39.0264L55.792 42H54.2441ZM61.4102 40.9404V38.4209C61.4102 38.2321 61.376 38.0693 61.3076 37.9326C61.2393 37.7959 61.1351 37.6901 60.9951 37.6152C60.8584 37.5404 60.6859 37.5029 60.4775 37.5029C60.2855 37.5029 60.1195 37.5355 59.9795 37.6006C59.8395 37.6657 59.7305 37.7536 59.6523 37.8643C59.5742 37.9749 59.5352 38.1003 59.5352 38.2402H58.3633C58.3633 38.0319 58.4137 37.8301 58.5146 37.6348C58.6156 37.4395 58.762 37.2653 58.9541 37.1123C59.1462 36.9593 59.3757 36.8389 59.6426 36.751C59.9095 36.6631 60.209 36.6191 60.541 36.6191C60.9382 36.6191 61.2897 36.6859 61.5957 36.8193C61.9049 36.9528 62.1475 37.1546 62.3232 37.4248C62.5023 37.6917 62.5918 38.027 62.5918 38.4307V40.7793C62.5918 41.0202 62.6081 41.2367 62.6406 41.4287C62.6764 41.6175 62.7269 41.7819 62.792 41.9219V42H61.5859C61.5306 41.873 61.4867 41.7119 61.4541 41.5166C61.4248 41.318 61.4102 41.126 61.4102 40.9404ZM61.5811 38.7871L61.5908 39.5146H60.7461C60.528 39.5146 60.3359 39.5358 60.1699 39.5781C60.0039 39.6172 59.8656 39.6758 59.7549 39.7539C59.6442 39.832 59.5612 39.9264 59.5059 40.0371C59.4505 40.1478 59.4229 40.2731 59.4229 40.4131C59.4229 40.5531 59.4554 40.6816 59.5205 40.7988C59.5856 40.9128 59.68 41.0023 59.8037 41.0674C59.9307 41.1325 60.0837 41.165 60.2627 41.165C60.5036 41.165 60.7135 41.1162 60.8926 41.0186C61.0749 40.9176 61.2181 40.7956 61.3223 40.6523C61.4264 40.5059 61.4818 40.3675 61.4883 40.2373L61.8691 40.7598C61.8301 40.8932 61.7633 41.0365 61.6689 41.1895C61.5745 41.3424 61.4508 41.4889 61.2979 41.6289C61.1481 41.7656 60.9674 41.8779 60.7559 41.9658C60.5475 42.0537 60.3066 42.0977 60.0332 42.0977C59.6882 42.0977 59.3805 42.0293 59.1104 41.8926C58.8402 41.7526 58.6286 41.5654 58.4756 41.3311C58.3226 41.0934 58.2461 40.8249 58.2461 40.5254C58.2461 40.2454 58.2982 39.998 58.4023 39.7832C58.5098 39.5651 58.666 39.3828 58.8711 39.2363C59.0794 39.0898 59.3333 38.9792 59.6328 38.9043C59.9323 38.8262 60.2741 38.7871 60.6582 38.7871H61.5811Z" fill="white"/>
</svg>
