<svg width="75" height="51" viewBox="0 0 75 51" fill="none" xmlns="http://www.w3.org/2000/svg">
<path d="M37.5 14.9375C37.5 14.0755 37.8424 13.2489 38.4519 12.6394C39.0614 12.0299 39.888 11.6875 40.75 11.6875H47.25C47.4655 11.6875 47.6722 11.7731 47.8245 11.9255C47.9769 12.0778 48.0625 12.2845 48.0625 12.5V25.5C48.0625 25.7155 47.9769 25.9222 47.8245 26.0745C47.6722 26.2269 47.4655 26.3125 47.25 26.3125H40.75C39.888 26.3125 39.0614 26.6549 38.4519 27.2644C37.8424 27.8739 37.5 28.7005 37.5 29.5625" stroke="white" stroke-width="3" stroke-linecap="round" stroke-linejoin="round"/>
<path d="M26.9375 25.5C26.9375 25.7155 27.0231 25.9222 27.1755 26.0745C27.3278 26.2269 27.5345 26.3125 27.75 26.3125H34.25C35.112 26.3125 35.9386 26.6549 36.5481 27.2644C37.1576 27.8739 37.5 28.7005 37.5 29.5625V14.9375C37.5 14.0755 37.1576 13.2489 36.5481 12.6394C35.9386 12.0299 35.112 11.6875 34.25 11.6875H27.75C27.5345 11.6875 27.3278 11.7731 27.1755 11.9255C27.0231 12.0778 26.9375 12.2845 26.9375 12.5V25.5Z" stroke="white" stroke-width="3" stroke-linecap="round" stroke-linejoin="round"/>
<path d="M14.6494 34.8906V42H13.4287V34.8906H14.6494ZM18.9268 34.8906L16.0361 38.9434H14.3027L14.1367 37.8789H15.3574L17.4277 34.8906H18.9268ZM17.6768 42L15.377 38.7578L16.168 37.8154L19.1465 42H17.6768ZM24.7109 40.9404V38.4209C24.7109 38.2321 24.6768 38.0693 24.6084 37.9326C24.54 37.7959 24.4359 37.6901 24.2959 37.6152C24.1592 37.5404 23.9867 37.5029 23.7783 37.5029C23.5863 37.5029 23.4202 37.5355 23.2803 37.6006C23.1403 37.6657 23.0312 37.7536 22.9531 37.8643C22.875 37.9749 22.8359 38.1003 22.8359 38.2402H21.6641C21.6641 38.0319 21.7145 37.8301 21.8154 37.6348C21.9163 37.4395 22.0628 37.2653 22.2549 37.1123C22.4469 36.9593 22.6764 36.8389 22.9434 36.751C23.2103 36.6631 23.5098 36.6191 23.8418 36.6191C24.2389 36.6191 24.5905 36.6859 24.8965 36.8193C25.2057 36.9528 25.4482 37.1546 25.624 37.4248C25.8031 37.6917 25.8926 38.027 25.8926 38.4307V40.7793C25.8926 41.0202 25.9089 41.2367 25.9414 41.4287C25.9772 41.6175 26.0277 41.7819 26.0928 41.9219V42H24.8867C24.8314 41.873 24.7874 41.7119 24.7549 41.5166C24.7256 41.318 24.7109 41.126 24.7109 40.9404ZM24.8818 38.7871L24.8916 39.5146H24.0469C23.8288 39.5146 23.6367 39.5358 23.4707 39.5781C23.3047 39.6172 23.1663 39.6758 23.0557 39.7539C22.945 39.832 22.862 39.9264 22.8066 40.0371C22.7513 40.1478 22.7236 40.2731 22.7236 40.4131C22.7236 40.5531 22.7562 40.6816 22.8213 40.7988C22.8864 40.9128 22.9808 41.0023 23.1045 41.0674C23.2314 41.1325 23.3844 41.165 23.5635 41.165C23.8044 41.165 24.0143 41.1162 24.1934 41.0186C24.3757 40.9176 24.5189 40.7956 24.623 40.6523C24.7272 40.5059 24.7826 40.3675 24.7891 40.2373L25.1699 40.7598C25.1309 40.8932 25.0641 41.0365 24.9697 41.1895C24.8753 41.3424 24.7516 41.4889 24.5986 41.6289C24.4489 41.7656 24.2682 41.8779 24.0566 41.9658C23.8483 42.0537 23.6074 42.0977 23.334 42.0977C22.9889 42.0977 22.6813 42.0293 22.4111 41.8926C22.141 41.7526 21.9294 41.5654 21.7764 41.3311C21.6234 41.0934 21.5469 40.8249 21.5469 40.5254C21.5469 40.2454 21.599 39.998 21.7031 39.7832C21.8105 39.5651 21.9668 39.3828 22.1719 39.2363C22.3802 39.0898 22.6341 38.9792 22.9336 38.9043C23.2331 38.8262 23.5749 38.7871 23.959 38.7871H24.8818ZM31.4961 36.7168V42H30.3145V36.7168H31.4961ZM33.2295 36.7168V37.6445H28.6104V36.7168H33.2295ZM38.916 40.9404V38.4209C38.916 38.2321 38.8818 38.0693 38.8135 37.9326C38.7451 37.7959 38.641 37.6901 38.501 37.6152C38.3643 37.5404 38.1917 37.5029 37.9834 37.5029C37.7913 37.5029 37.6253 37.5355 37.4854 37.6006C37.3454 37.6657 37.2363 37.7536 37.1582 37.8643C37.0801 37.9749 37.041 38.1003 37.041 38.2402H35.8691C35.8691 38.0319 35.9196 37.8301 36.0205 37.6348C36.1214 37.4395 36.2679 37.2653 36.46 37.1123C36.652 36.9593 36.8815 36.8389 37.1484 36.751C37.4154 36.6631 37.7148 36.6191 38.0469 36.6191C38.444 36.6191 38.7956 36.6859 39.1016 36.8193C39.4108 36.9528 39.6533 37.1546 39.8291 37.4248C40.0081 37.6917 40.0977 38.027 40.0977 38.4307V40.7793C40.0977 41.0202 40.1139 41.2367 40.1465 41.4287C40.1823 41.6175 40.2327 41.7819 40.2979 41.9219V42H39.0918C39.0365 41.873 38.9925 41.7119 38.96 41.5166C38.9307 41.318 38.916 41.126 38.916 40.9404ZM39.0869 38.7871L39.0967 39.5146H38.252C38.0339 39.5146 37.8418 39.5358 37.6758 39.5781C37.5098 39.6172 37.3714 39.6758 37.2607 39.7539C37.1501 39.832 37.0671 39.9264 37.0117 40.0371C36.9564 40.1478 36.9287 40.2731 36.9287 40.4131C36.9287 40.5531 36.9613 40.6816 37.0264 40.7988C37.0915 40.9128 37.1859 41.0023 37.3096 41.0674C37.4365 41.1325 37.5895 41.165 37.7686 41.165C38.0094 41.165 38.2194 41.1162 38.3984 41.0186C38.5807 40.9176 38.724 40.7956 38.8281 40.6523C38.9323 40.5059 38.9876 40.3675 38.9941 40.2373L39.375 40.7598C39.3359 40.8932 39.2692 41.0365 39.1748 41.1895C39.0804 41.3424 38.9567 41.4889 38.8037 41.6289C38.654 41.7656 38.4733 41.8779 38.2617 41.9658C38.0534 42.0537 37.8125 42.0977 37.5391 42.0977C37.194 42.0977 36.8864 42.0293 36.6162 41.8926C36.346 41.7526 36.1344 41.5654 35.9814 41.3311C35.8285 41.0934 35.752 40.8249 35.752 40.5254C35.752 40.2454 35.804 39.998 35.9082 39.7832C36.0156 39.5651 36.1719 39.3828 36.377 39.2363C36.5853 39.0898 36.8392 38.9792 37.1387 38.9043C37.4382 38.8262 37.7799 38.7871 38.1641 38.7871H39.0869ZM46.8779 36.7168V37.6543H44.2998V36.7168H46.8779ZM47.8008 36.7168V42H46.624V36.7168H47.8008ZM44.0117 36.7168H45.1738L45.0322 39.3291C45.0127 39.7165 44.9736 40.0583 44.915 40.3545C44.8597 40.6475 44.7848 40.8997 44.6904 41.1113C44.596 41.3197 44.4805 41.4889 44.3438 41.6191C44.207 41.7493 44.0475 41.8454 43.8652 41.9072C43.6829 41.9691 43.4779 42 43.25 42H42.8838L42.8789 41.0332L43.0645 41.0186C43.1849 41.0088 43.2891 40.9779 43.377 40.9258C43.4648 40.8704 43.5397 40.7923 43.6016 40.6914C43.6667 40.5905 43.7188 40.4603 43.7578 40.3008C43.8001 40.1413 43.8327 39.9525 43.8555 39.7344C43.8815 39.5163 43.901 39.2624 43.9141 38.9727L44.0117 36.7168ZM50.8262 39.417V39.3047C50.8262 38.9238 50.8815 38.5706 50.9922 38.2451C51.1029 37.9163 51.2624 37.6315 51.4707 37.3906C51.6823 37.1465 51.9395 36.9577 52.2422 36.8242C52.5482 36.6875 52.8932 36.6191 53.2773 36.6191C53.6647 36.6191 54.0098 36.6875 54.3125 36.8242C54.6185 36.9577 54.8773 37.1465 55.0889 37.3906C55.3005 37.6315 55.4616 37.9163 55.5723 38.2451C55.6829 38.5706 55.7383 38.9238 55.7383 39.3047V39.417C55.7383 39.7979 55.6829 40.151 55.5723 40.4766C55.4616 40.8021 55.3005 41.0869 55.0889 41.3311C54.8773 41.5719 54.6201 41.7607 54.3174 41.8975C54.0146 42.0309 53.6712 42.0977 53.2871 42.0977C52.8997 42.0977 52.5531 42.0309 52.2471 41.8975C51.9443 41.7607 51.6872 41.5719 51.4756 41.3311C51.264 41.0869 51.1029 40.8021 50.9922 40.4766C50.8815 40.151 50.8262 39.7979 50.8262 39.417ZM52.0029 39.3047V39.417C52.0029 39.6546 52.0273 39.8792 52.0762 40.0908C52.125 40.3024 52.2015 40.488 52.3057 40.6475C52.4098 40.807 52.5433 40.9323 52.7061 41.0234C52.8688 41.1146 53.0625 41.1602 53.2871 41.1602C53.5052 41.1602 53.694 41.1146 53.8535 41.0234C54.0163 40.9323 54.1497 40.807 54.2539 40.6475C54.3581 40.488 54.4346 40.3024 54.4834 40.0908C54.5355 39.8792 54.5615 39.6546 54.5615 39.417V39.3047C54.5615 39.0703 54.5355 38.849 54.4834 38.6406C54.4346 38.429 54.3564 38.2419 54.249 38.0791C54.1449 37.9163 54.0114 37.7894 53.8486 37.6982C53.6891 37.6038 53.4987 37.5566 53.2773 37.5566C53.056 37.5566 52.8639 37.6038 52.7012 37.6982C52.5417 37.7894 52.4098 37.9163 52.3057 38.0791C52.2015 38.2419 52.125 38.429 52.0762 38.6406C52.0273 38.849 52.0029 39.0703 52.0029 39.3047ZM62.2402 36.7168V37.6543H59.9355V42H58.7588V36.7168H62.2402Z" fill="white"/>
</svg>
